<?xml version="1.0" encoding="UTF-8"?><svg id="_圖層_1" xmlns="http://www.w3.org/2000/svg" xmlns:xlink="http://www.w3.org/1999/xlink" viewBox="0 0 530.01 529.9"><defs><style>.cls-1{fill:url(#_未命名漸層_12);}</style><linearGradient id="_未命名漸層_12" x1="452.4" y1="452.3" x2="77.72" y2="77.61" gradientUnits="userSpaceOnUse"><stop offset="0" stop-color="#e0bdde"/><stop offset=".97" stop-color="#f4deb8"/><stop offset="1" stop-color="#e0e0e0"/></linearGradient></defs><path class="cls-1" d="M528.96,266.37c2.31-17.95,.76-35.91-4.41-52.75-1.67-17.25-6.89-34.21-15.69-49.73-4.57-16.53-12.5-31.63-22.9-44.67-8.06-15.28-19.35-28.87-33.3-39.87-11.03-14.31-24.8-25.9-40.31-34.15-13.38-11.04-29.09-19.36-46.3-24.12-15.02-8.51-31.4-13.61-48.08-15.44-16.43-5.05-33.94-6.65-51.48-4.58-17.9-2.31-35.82-.78-52.61,4.34-17.27,1.66-34.27,6.88-49.81,15.69-16.96,4.68-32.49,12.75-45.76,23.55-14.88,8.02-28.13,19.1-38.89,32.74-14.28,11.03-25.85,24.77-34.09,40.26-11.04,13.39-19.35,29.11-24.11,46.32-8.41,14.86-13.47,31.06-15.35,47.55C.7,228.08-.93,245.79,1.16,263.52c-.17,1.31-.45,2.62-.58,3.93C.19,271.55-.01,275.64,0,279.72c.02,9.18,1.16,18.24,3.13,27.09,.71,3.21,1.49,6.39,2.45,9.53,1.69,17.19,6.9,34.09,15.66,49.55,.36,1.28,.6,2.59,.99,3.84,2.45,7.88,5.65,15.41,9.52,22.53,1.93,3.56,4.04,7.02,6.3,10.36,1.98,2.94,4.14,5.75,6.36,8.5,8.04,15.11,19.25,28.55,33.05,39.45,11,14.24,24.68,25.8,40.12,34.04,.03,.03,.06,.06,.09,.09,13.4,11.06,29.2,19.28,46.42,24.03,15.03,8.5,31.41,13.7,48.1,15.56,16.42,5.04,33.92,6.64,51.46,4.57,18.05,2.33,36.09,.73,53.01-4.5,17.14-1.7,33.99-6.91,49.41-15.65,16.36-4.54,31.32-12.35,44.25-22.6,15.47-8.07,29.23-19.46,40.34-33.54,14.39-11.11,26.03-24.98,34.29-40.61,10.95-13.34,19.2-28.95,23.93-46.06,8.41-14.83,13.47-31,15.35-47.47,5.18-16.59,6.82-34.3,4.73-52.05h0Zm-15.68,59.94c-.19-3.9-.56-7.75-1.11-11.54,1.93-3.23,3.7-6.57,5.36-10.02-.02,3.92-.25,7.83-.66,11.73-1.05,3.32-2.25,6.6-3.59,9.82h0Zm-13.84,24.38c-.11-5.52-.59-11.05-1.45-16.59,2.7-3.01,5.25-6.17,7.66-9.47,.17,2.56,.29,5.13,.29,7.73,0,3.07-.16,6.1-.41,9.1-1.89,3.17-3.91,6.25-6.1,9.23h0Zm-159.23,154.83c-2.54,.18-5.1,.27-7.69,.27-3.13,0-6.22-.15-9.29-.4,2.93-2.15,5.76-4.39,8.47-6.76,5.52,.91,11.04,1.45,16.56,1.62-2.61,1.86-5.3,3.61-8.05,5.26h0Zm-25.15,11.36c-3.95,.37-7.9,.5-11.85,.46,3.55-1.7,6.98-3.54,10.29-5.52,3.93,.62,7.91,1.02,11.96,1.25-3.41,1.44-6.88,2.71-10.4,3.81h0Zm-193.25-38.65c-2.96-2.48-5.74-5.13-8.43-7.9,3.69,1.31,7.4,2.44,11.13,3.39,2.36,3.22,4.96,6.32,7.66,9.34-3.52-1.44-6.99-3.05-10.37-4.82h0ZM16.81,203.66c.19,3.9,.52,7.77,1.06,11.57-1.9,3.19-3.64,6.48-5.28,9.88,.02-3.9,.25-7.8,.65-11.7,1.04-3.3,2.24-6.55,3.57-9.75h0Zm13.86-24.46c.11,5.52,.59,11.05,1.44,16.59-2.7,3.01-5.25,6.17-7.66,9.46-.18-2.59-.29-5.2-.29-7.83,0-3.02,.16-6.01,.39-8.96,1.89-3.18,3.93-6.26,6.12-9.26h0ZM382.2,41.75c1.87,1.63,3.7,3.33,5.48,5.11,2.25,2.25,4.36,4.59,6.38,6.98-3.63-.56-7.25-.99-10.88-1.23-3.26-4.55-6.79-8.84-10.57-12.86,3.23,.53,6.43,1.2,9.59,2h0Zm26.02,9.89c2.98,2.5,5.82,5.17,8.53,7.95-3.73-1.32-7.47-2.46-11.24-3.41-2.33-3.2-4.85-6.3-7.54-9.32,3.49,1.43,6.9,3.02,10.25,4.78h0Zm97.46,138.26c.17,2.49,.27,5,.27,7.54,0,3.17-.16,6.31-.41,9.41-2.16-2.95-4.41-5.8-6.8-8.52,.91-5.52,1.45-11.05,1.62-16.57,1.89,2.65,3.66,5.36,5.32,8.14h0Zm11.4,25.29c.35,3.9,.46,7.81,.42,11.72-1.7-3.57-3.54-7.01-5.53-10.34,.62-3.91,1.02-7.89,1.25-11.93,1.46,3.46,2.74,6.98,3.86,10.55h0Zm3.52,55.93c-.57-2.07-1.02-4.17-1.69-6.21,.59-1.78,.96-3.6,1.46-5.39,.42,2.27,.65,4.54,.93,6.82-.21,1.6-.41,3.2-.7,4.79h0Zm-50.59,108.02c-3.78,2.52-7.79,4.79-11.91,6.89-.1-7.24-.8-14.33-2.1-21.21,4.43-1.99,8.72-4.24,12.89-6.73,1,6.94,1.38,13.96,1.12,21.05h0Zm-12.35,48.27c-2.58,1.9-5.21,3.73-7.95,5.42,1.98-5.14,3.63-10.45,4.93-15.9,3.23-1.57,6.39-3.3,9.51-5.15-.97,2.94-1.95,5.87-3.18,8.77-1,2.38-2.17,4.61-3.3,6.87h0Zm-39.14,35.14c-2.41,.98-4.86,1.74-7.3,2.56,2.12-3.48,4.11-7.01,5.87-10.62,5.45-1.29,10.75-2.94,15.9-4.93-1.96,3.18-4.11,6.22-6.35,9.2-2.66,1.32-5.32,2.65-8.12,3.8h0Zm-62.52,7.25c2.8-4.57,5.33-9.3,7.52-14.19,6.87,1.38,13.98,2.09,21.21,2.27-2.35,4.62-4.86,9.1-7.72,13.27-7.08,.18-14.1-.27-21.01-1.35h0Zm-26.75,20.83c-4.47-.89-8.92-2.13-13.35-3.56,5.05-5.19,9.56-10.7,13.52-16.48,4.55,1.72,9.2,3.19,13.93,4.38-4.2,5.6-8.89,10.84-14.09,15.66h0Zm-42.84,25.39c-3.19-.48-6.37-1.06-9.53-1.8,2.5-1.12,5.03-2.19,7.47-3.47,2.47-1.3,4.86-2.82,7.26-4.29,3.41,1.18,6.89,2.2,10.43,3.09-2.77,1.39-5.55,2.77-8.48,3.97-2.37,.96-4.77,1.71-7.16,2.51h0Zm-44.17,.2c-2.8-.93-5.61-1.87-8.38-3.03-2.42-1.02-4.7-2.21-7.01-3.37,3.95-.96,7.85-2.05,11.65-3.36,4.77,2.94,9.68,5.52,14.71,7.75-3.64,.86-7.31,1.49-10.98,2h0Zm-72.49-24.65c-4.7-4.26-9.11-8.86-13.11-13.89,6.66-.08,13.26-.75,19.76-1.87,3.75,5.43,7.88,10.6,12.48,15.42-6.41,.66-12.8,.72-19.13,.34h0ZM24.16,332.38c0-3.14,.16-6.25,.41-9.32,2.16,2.96,4.42,5.81,6.81,8.54-.91,5.53-1.45,11.06-1.62,16.57-1.89-2.64-3.66-5.35-5.32-8.14-.18-2.53-.28-5.07-.28-7.65h0Zm-10.19-46.21c.48-3.16,1.05-6.31,1.79-9.43,2.24,5.05,4.82,9.97,7.76,14.73-.41,1.19-.92,2.33-1.29,3.54-.68,2.21-1.26,4.47-1.82,6.73-1.36-2.71-2.71-5.42-3.87-8.27-.99-2.41-1.75-4.86-2.56-7.3h0ZM60.11,150.78c3.78-2.53,7.79-4.79,11.91-6.9,.11,7.24,.81,14.32,2.1,21.21-4.43,1.99-8.72,4.24-12.9,6.74-.99-6.93-1.37-13.95-1.12-21.04h0Zm12.44-48.44c2.56-1.87,5.16-3.68,7.87-5.36-1.98,5.15-3.63,10.46-4.93,15.92-3.21,1.56-6.36,3.29-9.46,5.13,.96-2.89,1.93-5.79,3.14-8.66,1.02-2.43,2.22-4.71,3.38-7.04h0Zm355.11-29.91c1.86,2.54,3.66,5.13,5.31,7.82-5.14-1.98-10.45-3.63-15.9-4.93-1.55-3.19-3.26-6.33-5.09-9.41,2.9,.96,5.8,1.93,8.66,3.14,2.42,1.02,4.71,2.22,7.02,3.38h0Zm34.97,39.08c.97,2.38,1.71,4.79,2.52,7.18-3.44-2.09-6.93-4.06-10.51-5.8-1.29-5.45-2.95-10.75-4.93-15.9,3.13,1.93,6.12,4.04,9.05,6.25,1.36,2.71,2.7,5.43,3.87,8.28h0Zm7.26,62.51c-4.57-2.79-9.28-5.31-14.15-7.51,1.38-6.88,2.1-13.98,2.29-21.21,4.59,2.33,9.05,4.84,13.21,7.69,.18,7.09-.28,14.12-1.35,21.03h0Zm-19.3,213.71c0,.63-.09,1.23-.09,1.86-.56,.24-1.07,.53-1.63,.76-6.35,2.59-12.82,4.46-19.3,5.89-.19-7.49-1.08-14.94-2.61-22.31,7.46-1.37,14.75-3.44,21.82-6.11,1.13,6.48,1.81,13.11,1.81,19.91h0Zm-62.7,62.69c-7.34,0-14.48-.73-21.44-2.04,2.68-7.1,4.72-14.42,6.09-21.91,7.39,1.63,14.87,2.65,22.4,2.93-1.52,6.96-3.61,13.89-6.47,20.7-.04,.11-.11,.19-.14,.3-.14,0-.28,.02-.43,.02h0Zm-53.5-4.49c-2.24,5.25-5,10.31-8.02,15.25-6.12-2.7-12.04-5.86-17.63-9.56,8.25-1.21,16.47-3.27,24.6-6.23,.35,.17,.69,.36,1.05,.54h0Zm-26.38,38.25c-.55-.22-1.11-.37-1.66-.6-6.35-2.67-12.25-5.92-17.84-9.5,5.16-5.43,9.79-11.32,13.93-17.61,6.25,4.31,12.86,8,19.75,11.12-3.78,5.36-7.98,10.54-12.79,15.34-.43,.44-.93,.81-1.38,1.25h0Zm-87.29-1.24c-5.18-5.18-9.71-10.76-13.71-16.58,6.91-3.13,13.54-6.86,19.8-11.2,4.08,6.37,8.65,12.38,13.77,17.9-5.99,3.84-12.36,7.26-19.2,10.05-.12,.05-.24,.07-.35,.12-.1-.11-.21-.2-.32-.3h0Zm-80.33-32.61c-.23-.54-.52-1.03-.73-1.57-2.57-6.32-4.43-12.73-5.86-19.18,7.48-.21,14.93-1.11,22.29-2.66,1.36,7.42,3.43,14.66,6.08,21.69-6.49,1.12-13.13,1.81-19.94,1.81-.61,0-1.21-.08-1.83-.09h0ZM79.53,142.09c0-.59,.08-1.16,.09-1.75,.56-.24,1.08-.54,1.64-.77,6.36-2.59,12.82-4.46,19.31-5.89,.19,7.48,1.09,14.93,2.62,22.3-7.47,1.37-14.77,3.44-21.84,6.11-1.14-6.5-1.82-13.16-1.82-19.99h0Zm50.43-80.35c4.63-1.06,9.26-1.89,13.9-2.37-2.51,4.04-4.8,8.27-6.87,12.67-4.89,.25-9.72,.7-14.46,1.45,2.21-4.03,4.73-7.94,7.43-11.75h0Zm61.38-23.84c-4.66,4.77-8.85,9.91-12.66,15.29-6.49-1.19-13.08-1.93-19.74-2.08,4.06-5,8.53-9.57,13.29-13.78,6.34-.31,12.72-.17,19.12,.56h0Zm52.68-24.08c3.08,.5,6.15,1.06,9.2,1.79-5.04,2.24-9.96,4.82-14.73,7.76-3.36-1.16-6.77-2.16-10.24-3.05,2.72-1.36,5.44-2.72,8.3-3.89,2.46-1,4.97-1.78,7.46-2.61h0Zm43.62-.19c2.89,.96,5.77,1.92,8.61,3.12,2.36,1,4.59,2.17,6.86,3.3-3.89,.95-7.74,2.03-11.49,3.32-4.77-2.94-9.69-5.52-14.73-7.76,3.55-.85,7.15-1.46,10.75-1.98h0Zm57.95,42.2c-5.19,1.25-10.29,2.79-15.27,4.68-3.89-5.84-8.4-11.36-13.38-16.61,4.88-1.59,9.79-2.96,14.73-3.89,5.14,4.89,9.78,10.18,13.91,15.82h0Zm33.64,4.18c2.19,3.27,4.23,6.67,6.11,10.2,.28,.53,.5,1.11,.77,1.66-7.24,.11-14.32,.8-21.21,2.1-1.98-4.41-4.23-8.69-6.71-12.84,6.93-.99,13.95-1.38,21.04-1.12h0Zm71.33,81.72c0,.12,.02,.23,.02,.35,0,7.36-.74,14.54-2.05,21.51-7.1-2.68-14.42-4.73-21.91-6.1,1.63-7.39,2.66-14.87,2.94-22.4,6.95,1.52,13.86,3.6,20.65,6.46,.12,.05,.23,.12,.36,.18h0Zm47.68,97.38c-2.5,6.62-5.57,12.96-9.18,18.96-2.88-3.9-6.02-7.58-9.3-11.12,3.86-5.88,7.29-12.15,10.2-18.8,2.97,3.55,5.79,7.18,8.29,10.96h0Zm-229,219.66c.27-.3,.54-.61,.82-.91,8.6-.38,16.97-1.62,25.06-3.6-3.81,5.57-8.13,10.76-12.82,15.59-4.65-3.4-9.03-7.09-13.06-11.07h0Zm-22.43,9.97c-4.29-4.52-8.29-9.32-11.82-14.48,7.43,1.82,15.09,3.05,22.96,3.53,.27,.31,.54,.62,.81,.91-3.71,3.61-7.73,6.93-11.96,10.04h0Zm-144.98-50.27c-6.79-1.69-13.44-4-19.91-6.91-1.01-4.91-1.59-9.98-1.96-15.1,6.79,2.66,13.66,4.77,20.59,6.19,.13,5.29,.48,10.57,1.28,15.82h0Zm-34.35-.06c-.99-2.43-1.75-4.88-2.57-7.33,3.45,2.1,6.96,4.08,10.56,5.84,1.3,5.45,2.95,10.76,4.93,15.91-3.16-1.94-6.18-4.07-9.12-6.3-1.32-2.66-2.65-5.32-3.8-8.11h0Zm-4.89-238.6c4.27-2.7,8.72-5.05,13.29-7.18,1.39,5.47,3,10.85,5.07,16.02-4.69,2.02-9.25,4.43-13.72,7.02-.35-.94-.68-1.89-1-2.84-1.44-4.27-2.69-8.6-3.64-13.02h0Zm54.4-48.64c2.7-.21,5.38-.27,8.06-.29,.02,.37,.04,.73,.05,1.09-5.83,6.35-10.88,13.15-15.19,20.29-1.24-6.6-1.86-13.28-1.97-19.97,3.02-.47,6.04-.88,9.05-1.11h0ZM309.39,46.87c5.2,5.2,9.75,10.8,13.76,16.65-6.91,3.12-13.55,6.85-19.82,11.19-4.07-6.38-8.64-12.4-13.75-17.91,5.98-3.83,12.32-7.24,19.13-10.02,.14-.05,.28-.09,.42-.15,.09,.09,.18,.15,.27,.23h0Zm34.65,41c5.28-2.11,10.77-3.75,16.38-5.1,2.44,6.25,4.39,12.7,5.73,19.3-6.66-4.96-13.91-9.3-21.7-12.94-.16-.42-.27-.84-.42-1.25h0Zm114.81,172.91c-.28-.26-.57-.51-.85-.77-.36-8.64-1.61-17.05-3.6-25.17,5.57,3.81,10.76,8.12,15.58,12.81-3.42,4.67-7.12,9.07-11.13,13.12h0Zm-20.84,43.43c-.09-1.39-.3-2.77-.44-4.17,.77-1.4,1.45-2.84,2.16-4.27,1.57,1.74,3.19,3.45,4.64,5.28-2.08,1.12-4.21,2.15-6.36,3.16h0Zm3.19,6.89c-.91,2.13-1.98,4.18-3,6.24,.06-1.64,.22-3.26,.22-4.9,.94-.42,1.84-.91,2.79-1.34h0Zm-14.41,5.78c1.2,1.6,2.48,3.15,3.6,4.81-.29,3.73-.75,7.43-1.39,11.12-2.16,3.06-4.46,6.02-6.89,8.86-1.96,.38-3.96,.58-5.94,.86-.22-.43-.5-.84-.72-1.26,.46-4.22,.71-8.46,.75-12.74,3.64-3.63,6.98-7.5,10.12-11.52,.16-.05,.32-.08,.48-.12h0Zm-69.86,105.24c-2.14,.86-4.32,1.54-6.51,2.27,1.2-1.11,2.46-2.14,3.6-3.29,.95,.38,1.94,.67,2.91,1.02h0Zm-14.25-6.09c-.28,1.98-.47,3.97-.86,5.94-2.83,2.43-5.79,4.72-8.84,6.88-3.7,.64-7.42,1.11-11.16,1.39-1.66-1.12-3.2-2.39-4.8-3.59,.14-.44,.22-.91,.37-1.34,3.34-2.66,6.54-5.51,9.6-8.52,5.13,.01,10.22-.38,15.27-.98,.13,.07,.27,.16,.41,.23h0Zm-123.82,25.01c-2.12-.91-4.16-1.96-6.21-2.99,1.57,.06,3.14,.22,4.71,.22,.05,0,.11,0,.16,0,.42,.94,.9,1.84,1.34,2.78h0Zm-5.78-14.39c-1.61,1.2-3.16,2.47-4.82,3.6-3.72-.29-7.42-.75-11.11-1.39-3.07-2.16-6.02-4.46-8.86-6.89-.38-1.97-.58-3.97-.86-5.95,.42-.21,.83-.45,1.25-.66,4.24,.47,8.53,.72,12.83,.76,3.6,3.61,7.45,6.93,11.43,10.05,.05,.15,.09,.32,.13,.49h0Zm-105.04-30.5c.16-6.23,.73-12.45,1.89-18.59,3.97,6.56,8.54,12.86,13.78,18.79-.02,.39-.05,.79-.07,1.18-5.18-.09-10.39-.58-15.59-1.38h0Zm-34.41,11.3c-4.06-2.23-8-4.77-11.83-7.5-1.05-4.59-1.86-9.19-2.35-13.79,4.06,2.52,8.31,4.82,12.73,6.9,.25,4.86,.7,9.67,1.45,14.39h0ZM142.23,79.37c7.36,0,14.52,.74,21.49,2.04-2.67,7.07-4.73,14.36-6.09,21.83-7.38-1.65-14.86-2.66-22.38-2.97,1.52-6.88,3.58-13.73,6.41-20.46,.06-.14,.14-.28,.21-.42,.11,0,.23-.02,.36-.02h0Zm58.66-40.07c4.44,.88,8.86,2.11,13.25,3.53-5.05,5.19-9.54,10.72-13.51,16.5-4.53-1.71-9.14-3.16-13.84-4.34,1.46-1.95,2.94-3.88,4.52-5.74,2.96-3.5,6.18-6.79,9.57-9.94h0Zm22.87,7.01c6.32,2.66,12.2,5.9,17.78,9.46-5.16,5.43-9.79,11.34-13.92,17.63-6.25-4.31-12.87-8-19.76-11.11,3.8-5.41,8.03-10.6,12.86-15.44,.42-.42,.88-.77,1.3-1.18,.58,.23,1.17,.39,1.74,.63h0Zm37.11,24.84c-.24,.26-.48,.53-.71,.79-8.64,.37-17.04,1.61-25.15,3.61,3.8-5.55,8.09-10.71,12.75-15.52,4.67,3.42,9.06,7.12,13.11,11.12h0Zm165.34,233.06c-2.64-2.94-5.4-5.74-8.3-8.43,3.68-1.34,7.29-2.86,10.83-4.54,.42,2.33,.77,4.66,1.05,7.01-1.15,2.01-2.31,4.01-3.58,5.95h0Zm-82.66,103.71c-1.95-1.05-3.81-2.33-5.71-3.5,2.06-2.65,4.06-5.35,5.93-8.19,.1,3.89,.07,7.8-.21,11.69,0,0-.01,0-.02,0h0Zm-33.33,13.2c-2.44-2.13-4.77-4.37-7.01-6.68,2.95,.58,5.9,.94,8.86,1.31-.39,1.62-.7,3.28-1.17,4.88-.22,.17-.46,.32-.68,.49h0Zm-68.55,22.04c1.51,.64,3.08,1.12,4.61,1.7-2.31,.14-4.61,.34-6.94,.36,.77-.69,1.58-1.34,2.33-2.05h0Zm-22.25-21.65c-.63-2.11-1.04-4.3-1.55-6.46,3.32-.41,6.62-.9,9.93-1.58-2.67,2.8-5.43,5.52-8.36,8.06,0,0-.02-.01-.02-.02h0Zm-43.34-.42c1.16,1.16,2.43,2.2,3.63,3.32-2.2-.73-4.41-1.43-6.56-2.3,.98-.35,1.97-.65,2.93-1.02Zm-117.2-44.18c-.19-7.09,.27-14.11,1.34-21.02,4.55,2.79,9.26,5.31,14.12,7.49-1.38,6.87-2.09,13.98-2.27,21.21-4.6-2.34-9.05-4.84-13.2-7.68h0ZM133.87,107.86c6.21,.18,12.41,.76,18.54,1.91-6.58,3.98-12.89,8.55-18.82,13.81-.37-.02-.73-.05-1.09-.07,.09-5.21,.59-10.43,1.38-15.65h0Zm216.54-2.45c2.18,.73,4.38,1.42,6.52,2.29-.96,.35-1.95,.65-2.91,1.02-1.16-1.16-2.41-2.2-3.61-3.3h0Zm25.5,15.08c1.62,1.67,3.09,3.45,4.6,5.2-1.49-.69-2.93-1.47-4.44-2.1-.01-1.04-.11-2.06-.16-3.1h0Zm74.67,144.41c0,.61-.06,1.19-.07,1.79-.05-.24-.13-.48-.18-.72,.08-.36,.18-.71,.25-1.07h0Zm-8.07,1.02c-.85,3.64-1.85,7.24-3.03,10.79-1.68,1.09-3.45,2.03-5.17,3.03-.18-.16-.35-.34-.54-.5-1.31-4.85-2.82-9.66-4.75-14.36,1.57-3.83,2.86-7.73,4.02-11.66,.48-.4,.93-.84,1.41-1.25,1.71,1.03,3.48,1.98,5.14,3.09,1.14,3.57,2.11,7.18,2.92,10.85h0Zm-35.09,77.51c-3.22,.21-6.44,.28-9.66,.24,2.5-1.69,4.85-3.51,7.19-5.34,.86,1.41,1.8,2.79,2.6,4.24-.04,.28-.1,.57-.14,.87h0Zm-16.91,24.12c-1.59-.19-3.18-.45-4.77-.7,.85-3.04,1.6-6.11,2.21-9.23,1.32,3.08,2.49,6.22,3.55,9.4-.32,.18-.66,.35-.99,.54h0Zm-112.5,66.8c-1.03,1.72-1.97,3.48-3.09,5.14-3.55,1.14-7.16,2.11-10.81,2.91-3.66-.85-7.27-1.86-10.83-3.04-1.09-1.68-2.03-3.45-3.03-5.17,.16-.18,.32-.34,.48-.51,4.85-1.34,9.66-2.89,14.35-4.82,3.82,1.56,7.71,2.86,11.64,4.02,.41,.5,.87,.96,1.29,1.46h0Zm-70.8-53.62c-.03,.59-.07,1.17-.09,1.76-3.16,.25-6.32,.48-9.54,.48-.23,0-.45-.03-.68-.04,2.51-1.72,5.02-3.45,7.41-5.36,.22-.18,.43-.39,.65-.58,.74,1.25,1.46,2.5,2.25,3.73h0Zm-35.6,23.53c-1.56-2.04-3.08-4.11-4.51-6.25,4.01-1.41,7.93-3,11.78-4.8-.23,4.29-.22,8.59-.01,12.89-2.45-.51-4.85-1.19-7.25-1.85h0Zm24.11-320.38c2.23-5.21,4.96-10.25,7.96-15.16,6.14,2.7,12.06,5.87,17.66,9.57-8.2,1.21-16.38,3.25-24.45,6.18-.39-.18-.77-.4-1.17-.59h0Zm104.34,8.53c-1.38-.76-2.79-1.42-4.2-2.12,1.76-1.59,3.49-3.21,5.33-4.68,1.12,2.07,2.15,4.21,3.16,6.35-1.43,.09-2.87,.3-4.3,.45h0Zm43.53,30.21c.22,3.24,.28,6.48,.23,9.72-1.69-2.53-3.55-4.91-5.42-7.29,1.41-.86,2.77-1.79,4.21-2.58,.33,.04,.65,.11,.98,.16h0Zm31.49,32.27c.48,1.23,.79,2.54,1.23,3.79-1.68,.39-3.36,.75-5.04,1.21,.54-1.92,1-3.84,1.45-5.76,.79,.29,1.6,.47,2.36,.77h0Zm45.58,110.03c-.54,1.21-1.23,2.35-1.81,3.55-1.45-.91-2.88-1.83-4.38-2.68,1.73-.96,3.4-2,5.07-3.04,.35,.73,.79,1.43,1.12,2.17h0Zm-105.47,113.73c-.61,.89-1.29,1.74-1.93,2.62-1.08-.18-2.19-.29-3.25-.5-2.79-3.25-5.31-6.64-7.69-10.11-.03-1.25-.07-2.5-.14-3.75,.98-1.28,1.95-2.57,2.89-3.89,1.58,.29,3.17,.54,4.77,.76,1.34,1.53,2.69,3.04,4.09,4.5,.55,3.41,1,6.87,1.27,10.37h0Zm-98.58-12.54c.88-.92,1.76-1.86,2.61-2.81,1.6-.21,3.19-.44,4.78-.71,.91,1.32,1.87,2.62,2.84,3.91-.13,2-.25,4.01-.28,6-2.04,2.83-4.17,5.61-6.47,8.29-1.06,.2-2.15,.32-3.22,.49-.64-.89-1.34-1.75-1.95-2.66,.33-4.25,.95-8.4,1.7-12.51h0Zm-137.09-101.19c0-.57,.05-1.12,.07-1.7,.05,.26,.14,.5,.19,.77-.07,.36-.18,.71-.25,1.08,0-.05,0-.09,0-.14Zm305.55,30.57c-.71-2.29-1.49-4.55-2.33-6.79,1.64-1.74,3.32-3.45,4.86-5.3,5.1,2.73,9.98,5.82,14.62,9.23-5.63,1.35-11.34,2.35-17.14,2.86h0Zm-1.99,37.71c-1.9-2.77-3.86-5.51-6-8.14,1.28-.76,2.57-1.49,3.82-2.31,.58,.03,1.16,.06,1.73,.09,.25,3.16,.48,6.33,.48,9.54,0,.27-.03,.54-.04,.82h0Zm-19.98,18.77c-.24-.52-.48-1.05-.73-1.56,.29-1.52,.44-3.04,.66-4.55,3.29,1,6.61,1.84,9.95,2.55-.3,.13-.57,.29-.87,.41-2.98,1.22-6,2.2-9.02,3.16h0Zm-43.86,5.19c-1.02-4.09-2.25-8.1-3.67-12.03,.39-.82,.8-1.63,1.17-2.46,.82-.03,1.64-.07,2.46-.12,3.09,2.86,6.34,5.56,9.73,8.12-.79,2.3-1.51,4.62-2.45,6.88-2.42,0-4.82-.22-7.24-.39h0Zm-39.79,13.03c.55-3.78,.94-7.55,1.14-11.32,.79-.68,1.6-1.32,2.36-2.03,1.16,.44,2.31,.86,3.48,1.27,1.59,3.32,3.26,6.6,5.16,9.79-1.69,1.93-3.35,3.88-5.16,5.71-2.39-1.02-4.67-2.25-6.98-3.42h0Zm-7.19-13.86c-.3-1.47-.45-2.99-.69-4.48,.57,.29,1.15,.55,1.72,.83,0,.94-.11,1.89-.13,2.82-.31,.27-.59,.57-.9,.83h0Zm-16.33-1.76c0-.65-.08-1.32-.07-1.98,.92-.42,1.86-.83,2.77-1.28-.26,1.68-.44,3.38-.78,5.04-.68-.56-1.26-1.2-1.92-1.77h0Zm-.09,41.16c-2.36,1.19-4.77,2.34-7.24,3.39,1.45-2.23,2.85-4.5,4.12-6.85,.01-.03,.02-.06,.04-.09,.84,.62,1.63,1.29,2.49,1.89,.19,.56,.38,1.11,.59,1.67h0Zm-116.93-5.95c-1.98-3.18-3.82-6.44-5.5-9.79,.41-1.96,1-3.88,1.52-5.82,.27-.02,.54-.01,.82-.03,4.32,2.46,8.74,4.78,13.38,6.71,1.61,3.83,3.46,7.53,5.44,11.15-.06,.63-.06,1.27-.12,1.9-1.94,.49-3.87,1.06-5.84,1.45-3.32-1.7-6.56-3.56-9.7-5.58h0Zm-46.81-164.18c.09,1.43,.31,2.86,.45,4.29-.77,1.4-1.45,2.84-2.16,4.27-1.59-1.77-3.23-3.51-4.7-5.37,2.09-1.13,4.25-2.17,6.41-3.19h0Zm-3.18-6.89c.91-2.13,1.97-4.16,3-6.22-.06,1.63-.22,3.25-.22,4.88-.94,.42-1.85,.91-2.78,1.34h0Zm14.39-5.77c-1.2-1.6-2.46-3.14-3.59-4.8,.05-.75,.04-1.5,.11-2.25,.28-2.97,.77-5.93,1.28-8.89,2.16-3.06,4.46-6.02,6.89-8.86,1.96-.38,3.96-.58,5.94-.86,.22,.44,.52,.86,.74,1.29-.48,4.24-.72,8.52-.77,12.83-3.59,3.59-6.88,7.4-9.99,11.35-.21,.07-.43,.11-.62,.17h0Zm2.25-33.37c.73-2.19,1.43-4.39,2.29-6.54,.35,.97,.65,1.96,1.02,2.93-1.16,1.15-2.2,2.42-3.31,3.61Zm265.95,2.18c-2.62,.6-5.21,1.29-7.8,2.05-.16-1.06-.25-2.13-.44-3.2,.25-.52,.51-1.04,.75-1.56,2.51,.82,5,1.71,7.48,2.71Zm19.48,83.9c-.59,.92-1.11,1.89-1.71,2.8-3.41,1.09-6.83,2-10.26,2.77-1.85-.74-3.68-1.52-5.57-2.17-.82-1.4-1.64-2.78-2.51-4.14,.86-1.35,1.69-2.73,2.5-4.12,1.2-.41,2.35-.93,3.52-1.38,4.14,.89,8.26,2.05,12.35,3.41,.59,.91,1.11,1.89,1.68,2.82h0Zm-26.59,57.57c-.01-.38-.04-.75-.05-1.12,.25,.26,.46,.55,.71,.82-.21,.11-.44,.2-.66,.31Zm-8.96,12.07c.39-.14,.79-.32,1.18-.46-.02,.29-.02,.59-.04,.88-.37-.15-.76-.27-1.14-.42h0Zm-5.8-6.09c-2.22-2.98-4.55-5.86-7.01-8.61,.07-1.12,.12-2.25,.16-3.39,1.09-.49,2.18-.99,3.26-1.52,3.46,1.22,6.95,2.35,10.53,3.27,.18,2.56,.39,5.13,.39,7.71-2.4,.98-4.88,1.72-7.33,2.53h0Zm-57.83,22.81c-.41-.92-.89-1.82-1.27-2.74,.45-.49,.85-1.03,1.28-1.52,.36,1.54,.8,3.07,1.09,4.62-.37-.12-.75-.23-1.11-.35h0Zm-11.08-4.17c-.05-1.43-.12-2.86-.22-4.29,.45,1.34,.84,2.7,1.32,4.02-.18,.18-.39,.34-.57,.52-.18-.07-.35-.17-.53-.25h0Zm-31.12,22.89c-2.18,1.08-4.35,2.2-6.61,3.14-1.7-1.73-3.25-3.59-4.84-5.42,2.16-3.6,4.11-7.29,5.88-11.05,.89-.31,1.78-.61,2.66-.93,.57,.53,1.19,1,1.77,1.52,.16,4.24,.54,8.48,1.14,12.74h0Zm.42,9.68c-.36-.31-.68-.65-1.04-.96,.63-.29,1.28-.54,1.91-.84-.26,.61-.61,1.19-.87,1.8Zm-95-5.44c-.46-1.2-.78-2.48-1.2-3.7,1.67-.39,3.34-.75,5-1.2-.54,1.89-.98,3.78-1.43,5.68-.78-.29-1.61-.48-2.38-.77h0Zm-61.76-39.9c-.05-.12-.07-.24-.12-.36,.25,.39,.49,.77,.75,1.14,.06,.34,.14,.66,.21,.99-.26-.6-.58-1.16-.83-1.77Zm277.04-84.49c-3.76-.55-7.5-.93-11.26-1.14-.7-.81-1.38-1.66-2.1-2.45,.43-1.14,.85-2.28,1.25-3.42,3.3-1.58,6.58-3.24,9.76-5.13,1.94,1.69,3.9,3.37,5.74,5.19-1.01,2.39-2.22,4.66-3.39,6.96h0Zm-35.59,61.91c-1.08-1.01-2.18-2-3.29-2.97,1.32,.65,2.59,1.37,3.93,1.98,0,.25-.01,.51-.01,.77-.21,.09-.43,.14-.64,.23h0Zm-23.1,22.75c-.11-.22-.22-.42-.32-.65,.17,.19,.34,.39,.52,.59-.01,.02-.02,.04-.02,.06-.05,0-.11,0-.17,0Zm-9.59-.45c.19-.29,.34-.6,.54-.88,.15,.3,.29,.62,.44,.92-.32-.03-.65-.02-.98-.04Zm-5.5-5.77c-.12-.26-.25-.52-.37-.78,.3-.01,.61-.04,.91-.05-.18,.28-.36,.55-.54,.83Zm-8.23,11.46c-.21,.25-.45,.48-.65,.73-.11-.33-.24-.65-.34-.97,.34,.06,.67,.17,1,.24Zm-93.59,14.84c.15,.42,.33,.83,.48,1.24-.31-.02-.62-.02-.92-.04,.15-.39,.27-.8,.44-1.2h0Zm-35.68,6.91c-2.5,.73-5.03,1.25-7.54,1.81-1.07-3.89-1.92-7.86-2.6-11.9,1.76,.84,3.45,1.77,5.27,2.53,2.93,1.23,5.89,2.21,8.84,3.2-.45,1.13-.82,2.27-1.23,3.4-.91,.29-1.82,.68-2.73,.96h0Zm14.14-254.5c2.15-.86,4.35-1.55,6.54-2.29-1.2,1.11-2.46,2.15-3.61,3.31-.96-.37-1.95-.67-2.93-1.02h0Zm14.27,6.1c.28-1.98,.48-3.98,.86-5.94,2.84-2.43,5.79-4.73,8.86-6.89,3.7-.64,7.41-1.1,11.14-1.39,1.66,1.12,3.2,2.39,4.8,3.59-.16,.49-.25,1.02-.41,1.5-3.31,2.65-6.49,5.48-9.54,8.48-5.07,0-10.11,.37-15.11,.96-.19-.11-.38-.23-.59-.32h0Zm126.03,50.07c-.87,.91-1.73,1.84-2.58,2.78-1.6,.21-3.19,.44-4.78,.71-.91-1.32-1.87-2.62-2.84-3.91,.14-2.05,.26-4.09,.29-6.14,2.02-2.82,4.15-5.58,6.44-8.26,1.07-.21,2.17-.32,3.25-.5,.64,.88,1.33,1.74,1.94,2.64-.32,4.3-.96,8.52-1.73,12.68h0Zm21.49,139.01c-.31-.16-.63-.29-.93-.45,.29-.19,.61-.35,.89-.54,.03,.33,.02,.66,.04,1Zm-74.88,33.43c-.34-.24-.65-.5-.99-.73,.35-.12,.71-.22,1.06-.35,0,.36-.05,.71-.07,1.08h0Zm-150.62-71.39c.52-1.18,1.21-2.31,1.77-3.48,1.46,.91,2.91,1.84,4.41,2.71-1.72,.96-3.38,1.98-5.04,3.01-.35-.76-.81-1.48-1.14-2.24h0Zm133.02,76.25c-.21-.25-.45-.47-.66-.73,.34-.07,.66-.18,1-.24-.1,.32-.23,.64-.34,.97Zm-.43-8.71c.1-.25,.18-.52,.28-.77,.21,.19,.43,.39,.65,.59-.31,.07-.62,.12-.93,.19Zm-24.28,2.79c-.08-.2-.14-.41-.22-.62,.94-1.01,1.86-2.03,2.76-3.06-.6,1.22-1.26,2.4-1.83,3.64-.24,0-.48,.02-.71,.04h0Zm-22.45-10.79c-.08-.83-.11-1.66-.18-2.49,.5-.5,.95-1.06,1.45-1.56,.95,.35,1.89,.71,2.84,1.04-1.37,1-2.7,2.08-4.12,3.01h0Zm3.38,6.81c-.46,.72-.85,1.48-1.3,2.2-.26-.05-.53-.07-.79-.12-.04-.26-.07-.52-.11-.79,.72-.44,1.48-.84,2.2-1.3h0Zm28.33-215.79c-2.99-.59-6-.96-9.01-1.32,.39-1.62,.7-3.25,1.16-4.85,.26-.2,.53-.38,.79-.57,2.45,2.14,4.79,4.41,7.06,6.74h0ZM103.06,246.23c3.39-1.67,6.85-3.17,10.39-4.52,.19-.07,.38-.13,.56-.2-2.02,2.89-3.89,5.84-5.64,8.86-1.79-1.31-3.58-2.61-5.28-4.01-.01-.04-.02-.08-.03-.13h0Zm36.39-83.9c1.63,.19,3.26,.46,4.89,.72-.85,3.03-1.59,6.11-2.2,9.23-1.34-3.11-2.52-6.27-3.59-9.47,.3-.17,.61-.31,.89-.48h0Zm24.22-25.11s.03-.04,.04-.07c3.77,1.28,7.45,2.75,11.07,4.41-3.46,.62-6.86,1.38-10.22,2.27-.34-2.2-.68-4.4-.89-6.6h0Zm22.87-15.23c.05,0,.11-.01,.16-.02,1.93,1.05,3.8,2.25,5.68,3.4-2.1,2.69-4.14,5.44-6.03,8.32-.1-3.9-.08-7.8,.2-11.69h0Zm93.49,27.49c.36,.3,.67,.65,1.03,.95-.62,.27-1.23,.52-1.84,.8,.25-.59,.55-1.16,.81-1.75Zm13.83,28.41c-.34,1.71-.85,3.4-1.27,5.11-.68-.8-1.33-1.64-2.04-2.43,.26-.63,.59-1.24,.86-1.87,.82-.27,1.62-.57,2.45-.82Zm6.67,111.81c-.36-.55-.67-1.11-1.02-1.66,.66,.12,1.34,.17,2,.3,1.29,1.25,2.57,2.52,3.93,3.71-1.63-.82-3.26-1.61-4.92-2.35h0Zm-9.61,14.22c-.98-1.08-1.98-2.13-2.99-3.17-.1-.57-.14-1.15-.23-1.72,.44,.27,.89,.54,1.34,.82,.59,1.38,1.25,2.72,1.89,4.07h0Zm-126.99,18.45c.43-.45,.8-.93,1.25-1.38-.03,.64-.09,1.27-.12,1.91-.38-.19-.76-.34-1.13-.53h0Zm-2.07-8.64c-3.46,.57-6.96,1.03-10.52,1.31-.9-.61-1.75-1.3-2.63-1.93,.18-1.08,.29-2.18,.5-3.25,3.22-2.76,6.59-5.27,10.02-7.63,1.31-.03,2.61-.07,3.93-.14,1.28,.98,2.56,1.94,3.88,2.88-.29,1.58-.54,3.18-.77,4.78-1.5,1.29-2.98,2.61-4.4,3.99h0Zm-14.82-117c1.9,2.77,3.87,5.52,6,8.14-.41,.24-.84,.43-1.25,.68-.85,.52-1.72,.97-2.56,1.51-.59-.03-1.17-.07-1.75-.09-.25-3.16-.48-6.32-.48-9.54,0-.25,.04-.47,.04-.7h0Zm10.97-15.61c2.98-1.21,6-2.2,9.02-3.16,.24,.53,.49,1.05,.74,1.58-.27,1.47-.43,2.95-.65,4.42-3.23-.98-6.5-1.81-9.78-2.53,.22-.09,.44-.22,.67-.32h0Zm56.91-29.92c.61-.9,1.31-1.76,1.95-2.65,1.08,.18,2.17,.29,3.24,.5,2.79,3.25,5.31,6.65,7.7,10.11,.03,1.29,.07,2.59,.14,3.88-.98,1.28-1.94,2.57-2.88,3.88-1.58-.29-3.17-.53-4.76-.76-1.34-1.53-2.69-3.05-4.09-4.5-.56-3.45-1.02-6.92-1.29-10.46h0Zm14.93-18c-.62,3.29-1.17,6.6-1.52,9.95-1.43-.36-2.84-.75-4.29-1.06-.39-.43-.77-.86-1.16-1.29,2.05-2.41,4.13-4.81,6.4-7.09,.19-.18,.39-.33,.57-.51h0Zm28,40.27c.31,1.51,.46,3.07,.71,4.61-.59-.29-1.17-.56-1.75-.84,0-.98,.11-1.96,.14-2.94,.32-.26,.59-.57,.9-.83h0Zm6.57-4.91c.22-.15,.42-.32,.64-.48,.22,.15,.42,.32,.64,.48-.19,.83-.46,1.64-.64,2.48-.18-.84-.44-1.65-.64-2.48Zm23.71,28.77c-.12,.3-.21,.61-.33,.91-.25-.23-.5-.45-.76-.68,.36-.08,.72-.14,1.09-.23h0Zm-.83-7.73c.11-.32,.23-.65,.34-.96,.21,.25,.45,.47,.65,.72-.33,.07-.66,.18-1,.24Zm20.37,67.75c-.64-.14-1.26-.3-1.9-.45,.48-.34,.93-.71,1.42-1.05,1.8-.03,3.61-.12,5.41-.24-1.66,.55-3.3,1.12-4.93,1.74h0Zm2.82,16.72c-1.39-.06-2.76-.11-4.15-.12-.41-.29-.79-.61-1.18-.9,.51-.12,1.02-.25,1.54-.37,1.25,.5,2.53,.93,3.8,1.39h0Zm-99.4,37.77c-.07-.39-.11-.79-.18-1.17,.32,.15,.63,.34,.96,.48-.25,.24-.53,.45-.78,.68h0Zm-81.74-20.25c4.4-3.14,8.99-6.01,13.79-8.55,1.42,1.69,2.95,3.27,4.44,4.88-.82,2.07-1.57,4.16-2.26,6.3-5.4-.51-10.72-1.4-15.98-2.63h0Zm121.55-140.35c-.38-.18-.75-.32-1.12-.49,.21-.19,.41-.39,.63-.57,.16,.36,.34,.71,.5,1.07Zm-1.39,19.71c-.81,.71-1.66,1.38-2.46,2.12-.36-.14-.73-.27-1.09-.4-.73-.27-1.46-.55-2.2-.81-1.59-3.34-3.27-6.64-5.18-9.86,1.69-1.95,3.37-3.91,5.18-5.74,2.37,1.01,4.62,2.21,6.91,3.37-.55,3.77-.94,7.54-1.15,11.32h0Zm40.29,58.52c-.55,.36-1.11,.67-1.66,1.02,.11-.66,.16-1.33,.29-1.99,1.25-1.29,2.52-2.57,3.71-3.92-.81,1.62-1.6,3.25-2.34,4.89h0Zm14.21,9.63c-1.08,.98-2.14,1.98-3.18,3-.56,.09-1.12,.14-1.68,.23,.28-.45,.55-.91,.84-1.36,1.36-.58,2.68-1.23,4.02-1.87h0Zm-164.9,25.18c.59-.93,1.11-1.9,1.72-2.8,3.45-1.11,6.92-2.03,10.4-2.8,1.8,.71,3.59,1.48,5.43,2.12,.81,1.39,1.64,2.77,2.5,4.12-.86,1.36-1.69,2.74-2.51,4.13-1.25,.43-2.44,.96-3.66,1.43-4.09-.89-8.16-2.04-12.2-3.39-.6-.91-1.11-1.88-1.68-2.81h0Zm121.03-69.69c-.16-.05-.32-.1-.48-.16,.15-.11,.3-.22,.45-.33,0,.16,.03,.32,.03,.48Zm-61.46,3.95c-.72-.46-1.48-.85-2.2-1.29,.04-.26,.07-.52,.11-.79,.26-.04,.53-.07,.79-.11,.45,.72,.84,1.48,1.3,2.19h0Zm.39,9.57c-.63,.21-1.26,.44-1.88,.66-.68-.69-1.29-1.45-1.96-2.16,.04-.42,.05-.84,.09-1.26,1.29,.85,2.5,1.84,3.75,2.75h0Zm8.91-13.11c.53,.52,1.11,.98,1.62,1.5-.35,.95-.71,1.89-1.04,2.85-1.02-1.39-2.12-2.74-3.06-4.18,.82-.08,1.65-.11,2.48-.18h0Zm60.14,84.24c-1.06,.1-2.1,.26-3.16,.39-.85-.11-1.69-.29-2.55-.38-.24-.09-.48-.18-.73-.25-.75-.22-1.51-.35-2.26-.55-.74-.42-1.51-.8-2.27-1.2-.23-.19-.44-.41-.66-.61-.61-.5-1.26-.91-1.87-1.39-.55-.71-1.05-1.46-1.61-2.16-.1-.2-.19-.41-.29-.61-.37-.68-.82-1.31-1.2-1.97-.22-.79-.48-1.56-.72-2.34-.1-1.1-.26-2.19-.39-3.29,.14-1.11,.31-2.2,.42-3.31,.24-.77,.5-1.52,.71-2.3,.38-.65,.81-1.27,1.17-1.93,.07-.13,.12-.26,.19-.39,.65-.79,1.25-1.62,1.89-2.43,.91-.7,1.83-1.39,2.73-2.12,.65-.34,1.3-.66,1.93-1.02,.73-.2,1.44-.45,2.16-.66,1.18-.11,2.35-.26,3.52-.4,1.18,.15,2.36,.32,3.55,.44,.66,.2,1.31,.42,1.98,.61,.67,.39,1.37,.72,2.05,1.08,.91,.76,1.84,1.47,2.76,2.2,.7,.91,1.38,1.83,2.11,2.73,.35,.65,.66,1.3,1.03,1.93,.21,.78,.47,1.54,.71,2.31,.11,1.15,.26,2.29,.39,3.43-.14,1.08-.31,2.14-.42,3.22-.22,.75-.48,1.49-.68,2.24-.43,.76-.82,1.54-1.22,2.3-.69,.84-1.34,1.7-2.01,2.56-.82,.64-1.67,1.23-2.48,1.89-.75,.4-1.5,.77-2.24,1.19-.87,.24-1.71,.53-2.55,.79h0Zm-78.36,7.91c-.07,.34-.18,.66-.25,1.01-.25-.21-.48-.45-.73-.66,.32-.11,.64-.24,.98-.34Zm28.72-92.53c.13,.29,.29,.55,.42,.84-.2-.22-.39-.45-.6-.68,.02-.05,.04-.11,.06-.16h.11Zm8.61,.41c.32,.02,.65,.02,.97,.04-.19,.28-.34,.59-.53,.88-.16-.3-.29-.62-.44-.92Zm46.11,29.78c-.13-.52-.26-1.03-.38-1.55,.5-1.26,.93-2.54,1.39-3.82-.06,1.39-.11,2.79-.12,4.19-.29,.41-.61,.78-.89,1.18h0Zm-78.04,2.15c.3,.15,.62,.29,.92,.44-.29,.19-.59,.34-.88,.53-.02-.32-.02-.64-.04-.97Zm16.7-8.29c-.17,.07-.32,.17-.49,.25,.04-.2,.06-.39,.09-.59,.13,.11,.27,.21,.4,.34Zm-17.12,41.34c-.34,0-.65-.05-.99-.06,.22-.3,.45-.6,.67-.91,.11,.33,.2,.66,.32,.97Zm-.19,10.38c-.12-.18-.26-.35-.39-.52,.19,0,.38-.03,.57-.04-.06,.18-.11,.38-.18,.56Zm34.19-28.78c-1.26-1.21-2.5-2.45-3.81-3.6,1.57,.79,3.16,1.55,4.77,2.28,.34,.53,.65,1.08,.99,1.61-.65-.11-1.3-.17-1.94-.29h0Zm-3.89,15.18c-.52,.12-1.05,.26-1.58,.38-1.29-.52-2.61-.96-3.93-1.44,1.43,.07,2.87,.12,4.3,.14,.43,.3,.81,.62,1.21,.92h0Zm16.17-26.88c-.6-1.39-1.26-2.74-1.91-4.11,1,1.1,2.03,2.18,3.07,3.25,.1,.57,.14,1.14,.24,1.72-.47-.29-.93-.56-1.39-.86h0Zm16-5.61c-.33-.46-.69-.89-1.01-1.36-.03-1.76-.12-3.52-.22-5.28,.54,1.6,1.08,3.19,1.68,4.76-.13,.62-.3,1.25-.45,1.88Zm-42.01-20.5c.1-.31,.24-.61,.34-.91,.22,.26,.46,.51,.68,.77-.34,.05-.69,.07-1.02,.14h0Zm4.24,7.04c-.14,.3-.3,.59-.45,.88-.22-.24-.41-.48-.63-.72,.35-.07,.72-.1,1.08-.16h0Zm-14.98,4.45c-.26-.23-.51-.47-.77-.7,.32-.1,.62-.24,.93-.33-.06,.34-.09,.68-.16,1.02h0Zm-2.12,17.9c-.16-.07-.3-.15-.45-.22,.16-.11,.32-.22,.49-.32-.02,.18-.04,.36-.04,.54Zm-3.82,9.04c-.21,.22-.41,.45-.62,.68-.07-.32-.13-.65-.21-.98,.27,.11,.55,.19,.82,.3Zm-8.8-.57c.07,.34,.18,.67,.25,1.02-.33-.11-.65-.24-.98-.34,.25-.22,.48-.46,.73-.67h0Zm-2.49,14.61c-.19,.28-.42,.55-.62,.83-.15-.29-.27-.61-.42-.89,.34,.02,.69,.03,1.04,.06h0Zm-.09,16.54c-.34,.02-.68,.02-1.03,.05,.15-.29,.27-.6,.42-.88,.2,.28,.42,.54,.61,.83h0Zm30.88,1.38c1.61-.54,3.21-1.09,4.8-1.69,.62,.13,1.23,.3,1.85,.44-.46,.33-.88,.68-1.34,1-1.77,.05-3.54,.13-5.3,.25h0Zm-19.48-54.05c-1.2-.59-2.37-1.25-3.59-1.81,0-.22,.01-.44,.01-.66,.2-.08,.41-.14,.61-.22,.98,.92,1.97,1.82,2.97,2.69h0Zm-10.94,3.16c.03,.68,.13,1.37,.18,2.05-1.32-.83-2.73-1.59-4.01-2.48,.38-.2,.75-.39,1.12-.58,.89,.35,1.82,.63,2.71,1h0Zm-4.32,14.13c-.78,.67-1.6,1.3-2.36,1.99-.66-.27-1.29-.62-1.95-.9-.25-.79-.54-1.56-.78-2.36,1.7,.34,3.39,.86,5.09,1.27h0Zm-.68,10.7c.32,.12,.64,.2,.96,.32-.34-.02-.66-.04-1-.06-.02-.05-.04-.09-.06-.14,.04-.04,.07-.08,.11-.12Zm51.55-46.42c-.33,.01-.65,.03-.98,.05,.19-.3,.39-.59,.59-.89,.12,.28,.27,.55,.39,.84Zm-10.51-14.46c-.27-.65-.46-1.32-.72-1.96,.39-.75,.73-1.52,1.14-2.26,.96,1.44,1.8,3,2.7,4.49-1.04-.07-2.07-.22-3.11-.27h0Zm-46.95,39.78c.69,.5,1.34,1.06,2.04,1.55-.84-.16-1.69-.23-2.53-.38-.05-.26-.14-.52-.19-.78,.22-.14,.46-.27,.68-.4h0Zm.93,28.73c.42,.91,.82,1.83,1.27,2.73-1.69-.26-3.41-.44-5.07-.79,.54-.65,1.16-1.23,1.71-1.87,.7,0,1.4-.09,2.09-.08h0Zm-8.71,8.51c.83,.19,1.64,.46,2.48,.64-.84,.18-1.65,.44-2.48,.64-.16-.22-.32-.42-.48-.64,.15-.22,.32-.42,.48-.64Zm4.91,7.85c1.5-.31,3.05-.46,4.57-.71-.3,.6-.57,1.2-.86,1.8-.95,0-1.89-.11-2.84-.13-.28-.33-.6-.62-.88-.96h0Zm-2.48,8.39c.69,.79,1.33,1.61,2.04,2.38-.42,1.11-.83,2.22-1.22,3.35-3.36,1.6-6.67,3.29-9.89,5.21-1.93-1.68-3.88-3.34-5.71-5.15,1.02-2.38,2.23-4.64,3.39-6.93,3.8,.55,7.6,.95,11.4,1.15h0Zm11.05,.12c1.33-.04,2.66-.12,4-.2-1.26,.43-2.54,.79-3.8,1.25-.16-.16-.3-.35-.46-.5,.08-.18,.18-.36,.26-.55h0Zm15.57,5.98c.11,.12,.22,.25,.33,.38-.14,.05-.29,.1-.44,.15,.04-.17,.07-.34,.11-.52Zm28.09,4.32c1.11-1,2.19-2.04,3.26-3.08,.59-.1,1.18-.14,1.77-.24-.29,.45-.55,.92-.85,1.38-1.41,.6-2.79,1.27-4.18,1.93h0Zm17.18-92.93c-.06-.16-.11-.31-.16-.46,.19,.04,.38,.07,.57,.12-.14,.11-.27,.23-.41,.35Zm-1.23-8.62c.21-.25,.45-.48,.67-.73,.11,.33,.24,.65,.34,.98-.34-.07-.68-.18-1.02-.25h0Zm-2.24-8.8c-.45,.5-.86,1.04-1.3,1.55-.34-1.51-.79-3.01-1.07-4.52,.39,.12,.78,.25,1.17,.38,.39,.87,.84,1.72,1.2,2.6h0Zm-28.68-7.79c1.03,4.09,2.26,8.08,3.68,12-.38,.79-.77,1.57-1.13,2.36-.87,.03-1.74,.07-2.61,.12-3.07-2.83-6.29-5.51-9.66-8.05,.78-2.3,1.5-4.6,2.43-6.84,2.45,.03,4.88,.23,7.3,.41h0Zm-19.55,12.56c-.41,1.55-.8,3.12-1.14,4.69-1.57,.35-3.12,.73-4.68,1.14-1.18-.58-2.4-1.05-3.6-1.58-2.25-3.51-4.32-7.19-6.22-11,.22-1.06,.55-2.12,.8-3.17,1.07-.25,2.13-.56,3.2-.77,3.21,1.65,6.3,3.44,9.3,5.34,.78,1.79,1.5,3.59,2.35,5.34h0Zm-16.63,9.2c-.41,.14-.8,.36-1.2,.5,.02-.31,.02-.62,.04-.93,.38,.15,.77,.27,1.16,.42h0Zm5.71,6.11c2.25,3.02,4.6,5.92,7.08,8.7-.07,1.12-.12,2.23-.16,3.36-1.05,.47-2.1,.95-3.13,1.46-3.5-1.24-7.04-2.38-10.67-3.31-.18-2.56-.39-5.12-.39-7.7,2.38-.97,4.83-1.7,7.27-2.51h0Zm-18.82,37.4c3.6,2.16,7.29,4.11,11.04,5.87,.3,.86,.6,1.73,.91,2.59-.55,.6-1.05,1.25-1.59,1.85-4.23,.16-8.45,.54-12.68,1.14-1.08-2.18-2.2-4.32-3.14-6.58,1.75-1.71,3.61-3.27,5.45-4.87h0Zm-10.19,12.69c-.6-.25-1.17-.55-1.77-.82,.3-.36,.65-.68,.95-1.03,.28,.61,.53,1.24,.81,1.85h0Zm0,28.31c-.19,.39-.34,.81-.53,1.2-.2-.22-.41-.44-.62-.67,.39-.17,.76-.36,1.14-.53h0Zm26.68,12.55c.89-.39,1.75-.85,2.65-1.22,.52,.46,1.07,.88,1.59,1.34-1.54,.36-3.08,.81-4.62,1.09,.12-.4,.25-.81,.39-1.21h0Zm91.89-97.03c0-.32,.05-.64,.06-.96,.3,.21,.59,.44,.88,.65-.32,.11-.64,.2-.95,.31Zm-12.75-7.74c-.02-.34-.03-.68-.05-1.02,.29,.15,.6,.27,.88,.42-.28,.19-.54,.41-.83,.6h0Zm-7.62-.63c-.45-1.32-.83-2.65-1.31-3.96,.16-.16,.33-.29,.48-.44,.21,.09,.41,.21,.62,.29,.04,1.38,.12,2.74,.21,4.11h0Zm-20.33-10.69c.13,.85,.2,1.69,.35,2.53-.48-.71-1.03-1.36-1.52-2.05,.14-.22,.27-.45,.41-.68,.26,.07,.51,.14,.77,.21h0Zm-22.22-10.58c.19-.39,.36-.79,.55-1.18,.46,.45,.98,.84,1.44,1.3-.65-.04-1.32-.1-1.98-.12h0Zm-12.34,9.59c-.24-.6-.43-1.21-.66-1.81,.46-.03,.93-.02,1.39-.05-.23,.62-.5,1.23-.73,1.86h0Zm-41.35,60.69c-.13-.4-.3-.79-.43-1.18,.63-.01,1.25-.09,1.88-.09-.48,.43-.98,.84-1.45,1.28h0Zm84.73,69.88c.8-1.59,1.57-3.19,2.3-4.8,.53-.34,1.07-.65,1.61-.98-.11,.65-.17,1.31-.29,1.96-1.21,1.27-2.45,2.51-3.61,3.83h0Zm-2.84-150.73c0-.41,.06-.8,.07-1.21,.26,.09,.51,.19,.77,.28-.29,.3-.56,.61-.84,.93h0Zm-33.46,4.13c-1.12,2.13-2.16,4.28-3.15,6.46-2.38,.07-4.75,.09-7.13,.3-1.67-5.52-2.94-11.15-3.81-16.82,4.91,3.03,9.64,6.34,14.09,10.07h0Zm-36.06,48.1c.01,.41,.04,.83,.06,1.25-.28-.29-.52-.61-.8-.9,.24-.12,.49-.23,.73-.34Zm-1.85,9.85c.65,.62,1.31,1.23,1.97,1.84,.3,.27,.6,.57,.91,.84,.21,1.59,.44,3.19,.71,4.77-1.32,.91-2.62,1.87-3.91,2.84-2-.13-4-.25-5.99-.28-2.85-2.04-5.64-4.19-8.34-6.5-.21-1.06-.32-2.16-.49-3.24,.89-.64,1.75-1.34,2.66-1.95,4.23,.32,8.38,.94,12.49,1.69h0Zm-18.78,17.98c.71,2.29,1.49,4.53,2.33,6.75-1.63,1.73-3.3,3.42-4.85,5.26-5.07-2.72-9.93-5.79-14.55-9.18,5.6-1.33,11.29-2.32,17.07-2.83h0Zm-9.12,20.71c-.55,.19-1.11,.39-1.66,.59-1.21-2.4-2.38-4.84-3.44-7.35,2.32,1.46,4.68,2.83,7.1,4.14-.65,.88-1.37,1.71-2,2.62h0Zm17.61,38.82c.3,.28,.61,.55,.91,.82-.39,0-.79-.06-1.18-.07,.08-.25,.18-.49,.27-.75h0Zm22.05,6.79c.85-.13,1.7-.19,2.54-.35-.71,.48-1.36,1.03-2.06,1.53-.23-.14-.46-.27-.69-.41,.07-.26,.15-.52,.21-.77h0Zm26.18-4.7c.01,.3,.03,.6,.04,.89-.27-.17-.54-.36-.8-.53,.25-.12,.5-.25,.76-.36Zm-6.59,5.82c.29,.19,.59,.35,.88,.54-.3,.15-.62,.29-.92,.44,.02-.32,.02-.65,.04-.98Zm77.7-115.56c.3-.15,.61-.27,.9-.42-.02,.35-.03,.7-.06,1.04-.29-.2-.55-.43-.84-.62h0Zm-30.85-38.8c-2.07-.79-4.15-1.54-6.27-2.22,.5-5.42,1.39-10.77,2.62-16.03,3.14,4.4,6,8.99,8.54,13.79-1.7,1.42-3.28,2.95-4.89,4.46h0Zm-58.11,18.77c-1.08,.16-2.16,.25-3.24,.44-.52-.26-1.05-.52-1.59-.77,.83-2.53,1.72-5.06,2.74-7.57,.61,2.65,1.31,5.29,2.09,7.9h0Zm-18.2,32c-1.98,.89-3.95,1.86-5.89,2.86-3.52-4.23-6.71-8.69-9.59-13.34,5.33,.89,10.61,2.11,15.81,3.71-.21,2.26-.25,4.51-.32,6.76h0Zm-35.68,83.08c1.25-2.97,2.69-5.8,4.14-8.61,.54,.2,1.08,.39,1.62,.59,.85,1.25,1.8,2.4,2.69,3.61-2.98,1.59-5.89,3.32-8.72,5.14,.09-.24,.16-.49,.26-.73h0Zm57.59,22.06c-.07,1.03-.22,2.05-.26,3.07-.68,.28-1.39,.49-2.07,.76-.73-.38-1.48-.71-2.2-1.11,1.46-.96,3.03-1.8,4.54-2.72h0Zm7.09,8.04c.3-.14,.59-.3,.89-.45-.25,.23-.52,.45-.78,.68-.04-.01-.07-.02-.11-.04,0-.06,0-.13,0-.2Zm8.98,2.52c.06,.34,.09,.68,.15,1.02-.31-.1-.61-.24-.92-.34,.27-.21,.52-.45,.77-.68h0Zm15.07,4.11c.09,.19,.19,.37,.28,.55-.22-.04-.45-.07-.67-.11,.14-.14,.25-.3,.39-.44Zm63.03-135.84c-.09,.25-.16,.5-.25,.76,.01-.25,.04-.5,.04-.75,.05-.02,.1-.04,.14-.06,.02,.02,.04,.04,.06,.06Zm-7.58-4.93c-.93,.44-1.88,.85-2.8,1.3,.27-1.72,.45-3.46,.8-5.16,.67,.55,1.26,1.2,1.92,1.77,.02,.7,.08,1.39,.08,2.09h0Zm-2.94-26.31c-.73,1.82-1.49,3.62-2.14,5.48-1.39,.82-2.77,1.64-4.12,2.51-1.36-.86-2.74-1.69-4.12-2.51-.42-1.21-.94-2.38-1.39-3.58,.89-4.1,2.04-8.17,3.39-12.23,.91-.6,1.89-1.11,2.82-1.69,.92,.58,1.89,1.11,2.79,1.71,1.1,3.43,2.01,6.86,2.79,10.3h0Zm-14.68-15.26c-1.25,.85-2.4,1.79-3.61,2.68-1.6-2.99-3.33-5.9-5.16-8.74,.25,.11,.5,.17,.75,.27,2.97,1.25,5.8,2.69,8.61,4.14-.2,.54-.39,1.09-.59,1.64h0Zm-32.72-7.41c-2.24,2.24-4.27,4.62-6.31,6.98-.88-.85-1.79-1.62-2.69-2.43,.3-3.83,.82-7.61,1.46-11.32,4.21,.48,8.41,1.24,12.61,2.2-1.71,1.5-3.45,2.95-5.07,4.58h0Zm-18.32,23.39c-2.09-1.72-4.31-3.25-6.51-4.83,2.7,.05,5.38,.19,8.04,.41,.02,.59,.05,1.17,.09,1.75-.57,.88-1.07,1.78-1.62,2.67h0Zm1.39-12.02c-3.11-.23-6.22-.47-9.39-.47-1.97,0-3.93,.07-5.88,.19,2.19-3.44,4.52-6.75,7.01-9.9,2.12,1.5,4.26,2.97,6.3,4.64,.74,.61,1.42,1.31,2.14,1.94-.06,1.2-.17,2.39-.19,3.61h0Zm-64.73,84.17c.22,1.03,.51,2.04,.75,3.06-2.7,.27-5.36,.75-8.03,1.18,1.95-1.87,3.95-3.68,5.98-5.41,.43,.39,.86,.79,1.29,1.17h0Zm-13.75,82.15c2.24,2.24,4.61,4.27,6.98,6.3-.84,.88-1.61,1.79-2.43,2.69-3.85-.3-7.63-.82-11.37-1.46,.49-4.22,1.25-8.43,2.2-12.62,1.51,1.71,2.97,3.46,4.61,5.09h0Zm5.36-5.36c-.16-.16-.29-.34-.45-.49,3.29,.61,6.58,1.16,9.92,1.5-.34,1.41-.78,2.78-1.08,4.21-.44,.39-.88,.79-1.31,1.18-2.4-2.04-4.8-4.12-7.08-6.39h0Zm13.62,22.14c.57-.02,1.15-.05,1.72-.09,.89,.58,1.81,1.09,2.71,1.64-1.72,2.1-3.26,4.31-4.84,6.51,.05-2.71,.19-5.39,.41-8.06h0Zm11.19,5.37c2.11,1.11,4.24,2.15,6.4,3.12,.07,2.39,.08,4.78,.29,7.17-5.51,1.67-11.12,2.93-16.78,3.8,3.02-4.91,6.35-9.64,10.09-14.09h0Zm97.21-17.63c.06-1.42,.12-2.83,.14-4.25,.29-.42,.62-.8,.91-1.21,.12,.52,.26,1.03,.38,1.55-.51,1.29-.95,2.6-1.43,3.9h0Zm17.19-4.96c.34,.48,.71,.91,1.04,1.41,.03,1.77,.13,3.55,.24,5.33-.55-1.64-1.11-3.25-1.72-4.87,.13-.62,.3-1.24,.44-1.87h0Zm38.01-94.33c.18,.03,.38,.05,.56,.09-.12,.12-.21,.25-.33,.38-.07-.16-.16-.3-.23-.46Zm-8.51-15.32c-.19-.29-.35-.61-.54-.89,.34-.03,.66-.02,1-.05-.16,.31-.29,.64-.45,.94Zm-5.22,6.13c-.16,0-.34-.02-.5-.03,.07-.14,.14-.28,.21-.43,.1,.16,.2,.3,.3,.46Zm4.47-26.16c.26-.06,.52-.14,.78-.19,.14,.22,.26,.46,.4,.68-.5,.69-1.06,1.34-1.55,2.05,.16-.85,.24-1.69,.38-2.54h0Zm-15.81-3.34c-.83,.29-1.67,.57-2.5,.88-.6-.56-1.25-1.05-1.86-1.6-.16-4.24-.55-8.49-1.15-12.74,2.16-1.07,4.3-2.18,6.54-3.12,1.71,1.74,3.28,3.6,4.87,5.45-2.17,3.62-4.13,7.34-5.9,11.13h0Zm-77.13-51.57c-.33,1.95-.75,3.88-1,5.86-1.39-1.09-2.84-2.07-4.25-3.12,.88-.96,1.75-1.92,2.66-2.86,.87,.02,1.73,.07,2.59,.12h0Zm-40.98,9.6c1.33-1.94,2.74-3.82,4.2-5.68,2.25-.61,4.52-1.21,6.81-1.69-.21,3.95-.24,7.89-.07,11.84-3.58-1.66-7.22-3.14-10.93-4.47h0Zm10.07,18.11c-.85,1.79-1.8,3.5-2.57,5.34-1.23,2.93-2.21,5.89-3.2,8.84-1.13-.45-2.27-.82-3.41-1.24-1.1-3.43-2.01-6.88-2.78-10.34,3.91-1.08,7.9-1.93,11.96-2.61h0Zm-13.95,22.27c-2.97,.96-5.94,1.91-8.88,3.11-2.1,.86-4.06,1.9-6.09,2.85,.74-4.23,1.69-8.37,2.86-12.43,3.65,.83,7.29,1.84,10.91,3.05,.4,1.14,.76,2.29,1.2,3.42h0Zm-24.13,35.84c-1.21,.02-2.41,.13-3.62,.18-2.5-2.92-4.79-5.95-6.97-9.04,3.29-2.61,6.76-5.03,10.37-7.3-.14,2.24-.25,4.48-.25,6.76,0,3.17,.24,6.29,.47,9.39h0Zm-4.4,10.63c-2.36,2.04-4.73,4.07-6.98,6.31-1.43,1.43-2.7,2.97-4.03,4.46-.91-4.03-1.6-8.05-2.07-12.09,3.51-.59,7.04-1.09,10.65-1.38,.81,.89,1.59,1.82,2.43,2.7h0Zm-14.2,26.93c.65,1.86,1.2,3.72,1.95,5.56,1.2,2.94,2.59,5.72,3.98,8.51-1.11,.48-2.18,1.03-3.27,1.53-3.19-1.64-6.27-3.43-9.25-5.32,1.99-3.52,4.21-6.94,6.59-10.29h0Zm5.88,25.57c-1.42,2.77-2.85,5.55-4.08,8.48-.87,2.08-1.52,4.19-2.28,6.29-2.46-3.5-4.71-7.11-6.75-10.79,3.17-1.98,6.44-3.83,9.84-5.54,1.09,.52,2.16,1.07,3.26,1.57h0Zm-14.48,16.41c-3.15-1.25-6.23-2.66-9.26-4.17,.09-.35,.21-.68,.3-1.03,1.29-1.02,2.62-1.96,3.95-2.94,1.55,2.76,3.21,5.48,5,8.13Zm8.42,34.71c1.96,.34,3.91,.76,5.91,1-1.11,1.42-2.08,2.9-3.13,4.35-.98-.89-1.95-1.79-2.91-2.7,.03-.88,.09-1.76,.13-2.65h0Zm8.57,10.25c2.08-2.91,4.23-5.79,6.59-8.54,1.21,.06,2.4,.16,3.61,.19-.23,3.11-.47,6.22-.47,9.39,0,2.01,.08,4.01,.19,5.98-3.45-2.2-6.77-4.53-9.92-7.02h0Zm36.72,14.7c.16,1.09,.25,2.18,.45,3.27-.25,.53-.52,1.06-.77,1.59-2.56-.84-5.11-1.73-7.63-2.76,2.67-.6,5.32-1.31,7.95-2.09Zm6.37-11.51c.64,.24,1.28,.52,1.92,.75-.62,.25-1.25,.44-1.87,.68-.04-.47-.02-.95-.05-1.43h0Zm162.77-75.03c.12,.16,.23,.31,.34,.47-.17,0-.34,.03-.5,.03,.06-.16,.1-.34,.16-.5Zm4.82-16.84c.07-.34,.18-.66,.24-1,.25,.21,.48,.45,.73,.66-.32,.11-.64,.24-.97,.34Zm-8.02,.63c-.1-.11-.19-.22-.3-.34,.13-.05,.27-.09,.39-.14-.04,.16-.06,.31-.09,.47Zm-14.07-24.63c.24-.24,.51-.43,.75-.66,.07,.38,.11,.75,.17,1.12-.32-.15-.61-.32-.92-.46Zm-3.52-14.48c.22-.26,.46-.5,.69-.76,.1,.31,.23,.61,.32,.92-.33-.07-.68-.09-1.02-.16h0Zm-5.07-5.69c.65-1.3,1.35-2.57,1.95-3.89,.23,0,.46,.01,.7,.01,.09,.22,.14,.45,.24,.67-.98,1.05-1.95,2.12-2.89,3.21Zm-3-11.24c-.65,.03-1.31,.13-1.95,.17,.82-1.3,1.56-2.68,2.43-3.94,.18,.34,.36,.68,.54,1.03-.36,.91-.65,1.84-1.02,2.74h0Zm-11.93-34.05c.41-.14,.82-.31,1.23-.45,.01,.65,.1,1.3,.1,1.96-.45-.5-.87-1.02-1.33-1.51h0Zm-171.16,49.69c1.15,1.61,2.2,3.27,3.44,4.85-1.77,.22-3.5,.61-5.25,.89-.07-1.32-.12-2.64-.14-3.96,.64-.61,1.29-1.19,1.95-1.77h0Zm-21.89,86.89c3.82,1.84,7.72,3.48,11.7,4.93-3.19,2.87-6.21,5.89-9.1,9.08-1.38-2.1-2.59-4.28-3.83-6.45,.34-2.54,.73-5.06,1.22-7.57h0Zm13.9,13.22c-.59,2.98-.95,5.96-1.32,8.95-1.64-.39-3.31-.71-4.92-1.18-.18-.22-.33-.46-.5-.69,2.15-2.46,4.41-4.81,6.75-7.08h0Zm9.95,34.72c2.64,2.06,5.34,4.06,8.18,5.93-3.88,.1-7.76,.07-11.63-.21,0-.02,0-.05-.01-.08,1.05-1.93,2.3-3.76,3.46-5.64h0Zm46.94-11.34c.02-2.45,.24-4.85,.41-7.28,4.06-1.02,8.04-2.24,11.94-3.65,.82,.4,1.65,.8,2.48,1.18,.02,.85,.07,1.69,.12,2.53-2.83,3.06-5.52,6.29-8.05,9.66-2.31-.78-4.63-1.51-6.89-2.44h0Zm41.88-.79c.34,.07,.68,.1,1.02,.16-.22,.25-.46,.5-.69,.76-.1-.3-.23-.61-.33-.92h0Zm13.2,8.29c.19,.29,.34,.6,.54,.88-.33,.03-.65,.02-.98,.05,.15-.3,.29-.62,.45-.93Zm5.28-6.03c.14,.01,.29,.02,.44,.03-.05,.12-.12,.24-.18,.38-.08-.14-.17-.27-.26-.41Zm102.55-58.02c.36,0,.7,.05,1.05,.07-.22,.33-.48,.64-.71,.96-.12-.35-.22-.69-.34-1.04h0Zm7.8-12.7c.34-.02,.68-.02,1.02-.05-.15,.29-.27,.59-.42,.88-.19-.29-.41-.55-.6-.83h0Zm.32-7.61c1.4-.47,2.81-.88,4.2-1.39,.18,.18,.33,.38,.51,.55-.09,.21-.2,.4-.29,.61-1.47,.05-2.94,.12-4.42,.22h0Zm5.89-10.1c-.47-.43-.98-.81-1.46-1.24,1.5-.34,2.99-.79,4.5-1.06-.11,.36-.22,.7-.33,1.05-.91,.4-1.8,.87-2.71,1.25h0Zm-21.08-5.54c-.01-.34-.04-.68-.05-1.02,.31,.2,.62,.41,.92,.61-.29,.13-.57,.28-.87,.41h0Zm6.6-5.95c-.29-.19-.59-.35-.88-.53,.3-.16,.62-.29,.92-.45-.03,.32-.02,.65-.04,.98Zm-39.33-83.01c-2.3,.71-4.57,1.5-6.81,2.35-1.73-1.63-3.43-3.3-5.27-4.84,2.73-5.1,5.82-9.97,9.21-14.61,1.35,5.61,2.35,11.31,2.86,17.1h0Zm-20.72-9.06c-.19-.55-.38-1.09-.57-1.64,2.36-1.19,4.76-2.33,7.23-3.39-1.43,2.29-2.79,4.62-4.07,6.99-.87-.64-1.69-1.34-2.58-1.96h0Zm-14.8-8.79c-2.78-1.43-5.55-2.85-8.48-4.08-2.1-.88-4.24-1.54-6.35-2.3,3.52-2.46,7.12-4.73,10.83-6.77,2,3.19,3.86,6.48,5.57,9.89-.52,1.09-1.08,2.14-1.57,3.26h0Zm-16.36-14.6c1.25-3.12,2.64-6.18,4.15-9.18,.32,.09,.63,.19,.95,.28,1.02,1.29,1.98,2.62,2.94,3.96-2.73,1.54-5.41,3.18-8.04,4.94h0Zm-3.42-10.92c-1.85,3.84-3.5,7.75-4.95,11.75-2.87-3.19-5.9-6.22-9.07-9.1,2.12-1.39,4.32-2.61,6.52-3.87,2.51,.33,5.02,.72,7.5,1.22h0Zm-80.3,57.18c-1.9-.54-3.81-1-5.72-1.44,.29-.79,.48-1.62,.78-2.41,1.21-.47,2.5-.78,3.73-1.21,.38,1.68,.75,3.37,1.21,5.05h0Zm-34.78,32.83c-.88-1.43-1.82-2.83-2.63-4.29,.04-.3,.1-.61,.14-.91,3.26-.21,6.53-.27,9.79-.23-2.53,1.71-4.92,3.57-7.3,5.43h0Zm-10.23,26.15c.41,3.34,.91,6.68,1.59,10.01-2.81-2.67-5.54-5.43-8.08-8.36,.03-.04,.05-.08,.09-.12,2.09-.62,4.26-1.03,6.4-1.53h0Zm-2.68,16.38c-3.7,1.35-7.34,2.88-10.9,4.56-.43-2.33-.77-4.67-1.05-7.01,1.16-2.02,2.33-4.04,3.61-6,2.64,2.95,5.42,5.77,8.34,8.45h0Zm18.22,117.32c1.56,0,3.13-.15,4.69-.22-1.66,3.55-3.14,7.18-4.46,10.87-1.96-1.35-3.87-2.77-5.74-4.24-.61-2.23-1.21-4.48-1.68-6.75,2.4,.14,4.79,.34,7.19,.34h0Zm6.78,14.83c1.28-3.77,2.76-7.45,4.41-11.06,.61,3.48,1.36,6.89,2.25,10.27-2.17,.34-4.34,.67-6.5,.89-.05-.03-.1-.07-.15-.09h0Zm37.47-15.91c1.66-3.23,3.46-6.33,5.37-9.34,1.8-.77,3.61-1.49,5.38-2.36,1.55,.41,3.12,.8,4.68,1.14,.35,1.57,.74,3.14,1.15,4.7-.57,1.18-1.04,2.39-1.57,3.59-3.54,2.27-7.24,4.35-11.07,6.27-1.06-.22-2.1-.55-3.16-.8-.25-1.07-.56-2.14-.77-3.21h0Zm30.75-15.69c.83-1.26,1.81-2.46,2.7-3.69,.21,.62,.44,1.23,.65,1.86-.66,.66-1.41,1.26-2.09,1.9-.42-.04-.84-.02-1.27-.07h0Zm16.91,10.72c.36-.93,.65-1.89,1.03-2.8,.67-.04,1.34-.13,2.02-.18-.84,1.34-1.61,2.75-2.5,4.05-.19-.36-.38-.72-.56-1.07h0Zm17.15,3.87c-.28,.68-.63,1.33-.93,2-.8,.25-1.57,.55-2.38,.79,.34-1.73,.86-3.46,1.29-5.19,.68,.79,1.31,1.62,2.01,2.39h0Zm8.71-1.7c.1-.27,.18-.55,.27-.82-.02,.3-.04,.61-.05,.91-.02,0-.04,.02-.07,.03-.04-.04-.09-.08-.14-.13Zm63.04-29.45c.25,.27,.46,.55,.71,.82-.4,.07-.82,.11-1.22,.18,.16-.34,.34-.66,.5-1h0Zm3.81,8.02c-.11,.32-.24,.62-.34,.93-.22-.27-.46-.52-.69-.79,.34-.05,.7-.08,1.04-.15h0Zm3.13-14.96c.18-.09,.35-.18,.52-.26-.04,.21-.07,.42-.11,.63-.13-.13-.29-.25-.42-.37Zm9.73-14.41c.12,.05,.22,.12,.35,.16-.13,.08-.25,.16-.38,.24,0-.13,.02-.26,.03-.4Zm3.81-9.05c.22-.24,.43-.48,.65-.71,.08,.34,.14,.68,.21,1.03-.29-.11-.57-.19-.86-.31h0Zm8.82,.44c-.07-.33-.18-.65-.24-.99,.32,.11,.64,.23,.96,.34-.24,.2-.46,.44-.71,.64Zm7.18-6.53s-.05,.06-.09,.09c-.21-.07-.41-.13-.62-.21,.22,.01,.45,.03,.67,.04,.01,.02,.02,.05,.04,.07Zm-4.7-7.96c.19-.29,.42-.55,.62-.83,.15,.29,.27,.61,.42,.89-.35-.03-.69-.03-1.04-.06h0Zm11.41-44.47c-.85,.13-1.69,.2-2.53,.35,.71-.48,1.37-1.04,2.07-1.54,.22,.14,.45,.26,.67,.41-.06,.26-.14,.52-.21,.78h0Zm-7.49-5.41c-1.46,.98-3.04,1.83-4.56,2.75,.08-1.07,.22-2.14,.27-3.22,.64-.26,1.3-.46,1.94-.71,.78,.41,1.58,.77,2.35,1.18h0Zm-11.64-5.52v.09c-.2,.09-.39,.21-.59,.29,.15-.14,.32-.27,.47-.42,.04,.02,.07,.02,.11,.04Zm-8.99-2.31c-.07-.34-.09-.69-.15-1.03,.31,.1,.62,.24,.93,.34-.26,.22-.52,.46-.78,.69h0Zm-20.29-73.84c-1.02,.22-2.01,.5-3.02,.75-.27-2.68-.74-5.32-1.18-7.97,1.86,1.94,3.64,3.92,5.36,5.94-.4,.41-.79,.84-1.17,1.28h0Zm-26-18.96c-2.94,1.2-5.73,2.59-8.52,3.99-.48-1.12-1.03-2.18-1.54-3.28,1.65-3.2,3.44-6.29,5.34-9.29,3.52,2,6.95,4.23,10.3,6.61-1.86,.67-3.74,1.21-5.59,1.96h0Zm-14.21-7.59c-.96-1.73-2-3.41-3.04-5.1,.76-.36,1.48-.81,2.25-1.14,1.2,.53,2.33,1.23,3.52,1.8-.93,1.47-1.86,2.93-2.73,4.45h0Zm-48.35-23.99c-.05,0-.11,0-.16,0-1.58,0-3.16,.16-4.73,.22,2.07-1.03,4.11-2.1,6.24-3-.45,.94-.93,1.84-1.35,2.79h0Zm-49.69,26.62c-1.51,.44-2.99,.98-4.48,1.48,.12-2.38,.2-4.75,.46-7.11,2.27,.68,4.51,1.46,6.74,2.27-.95,1.09-1.81,2.25-2.72,3.37h0Zm-17.78,15.13c1.96,.41,3.87,1,5.8,1.51,.01,.24,0,.46,.02,.7-2.48,4.34-4.8,8.79-6.75,13.44-3.86,1.62-7.57,3.49-11.22,5.48-.6-.05-1.2-.05-1.8-.1-.49-1.93-1.06-3.85-1.45-5.81,1.7-3.33,3.58-6.57,5.59-9.73,3.18-1.99,6.44-3.82,9.79-5.49h0Zm-18.07,33.63c1.4,4,2.99,7.91,4.79,11.75-2.09-.12-4.18-.3-6.27-.3s-4.38,.2-6.56,.31c.51-2.47,1.2-4.88,1.87-7.31,2.01-1.54,4.07-3.04,6.18-4.46h0Zm-36.16,83.22c.19,.17,.37,.36,.56,.52,1.31,4.81,2.81,9.58,4.71,14.24-1.58,3.86-2.88,7.8-4.05,11.77-.48,.39-.91,.84-1.39,1.24-1.71-1.03-3.47-1.97-5.13-3.09-1.14-3.56-2.12-7.17-2.92-10.83,.85-3.66,1.86-7.26,3.04-10.82,1.68-1.1,3.45-2.03,5.17-3.04h0Zm-9.23,36.26c-.07,.07-.12,.14-.19,.21-.65,.67-1.25,1.39-1.88,2.09,.04-2.31,.25-4.6,.42-6.89,.56,1.53,1.03,3.09,1.65,4.59h0Zm122.91,56.06c1.09,.07,2.19,.12,3.29,.16,.48,1.08,.98,2.16,1.5,3.23-1.23,3.49-2.37,7.01-3.29,10.63-2.55,.18-5.1,.38-7.66,.39-.97-2.41-1.71-4.87-2.52-7.32,3.02-2.25,5.91-4.6,8.69-7.08h0Zm17.62,11.03c.51-.69,1.06-1.34,1.55-2.04-.16,.85-.24,1.69-.38,2.54-.26,.05-.52,.13-.78,.19-.14-.23-.26-.46-.4-.69Zm29.18-9.5c.02-.34,.03-.68,.06-1.03,.28,.19,.54,.42,.83,.62-.29,.15-.6,.25-.89,.41h0Zm13.66-8.79c.19,.07,.39,.12,.57,.19-.18,.13-.36,.27-.54,.39,0-.2-.03-.38-.04-.57Zm17.11-3.32c.04,.12,.08,.24,.12,.37-.14-.03-.29-.05-.44-.09,.1-.09,.21-.18,.31-.27Zm38.77-17.25c.25,.22,.5,.45,.75,.68-.31,.1-.61,.22-.91,.32,.06-.34,.09-.68,.16-1Zm16.88-8.15c-.03-.65-.13-1.28-.16-1.93,1.32,.83,2.7,1.58,3.98,2.46-.32,.18-.65,.35-.98,.52-.94-.36-1.91-.66-2.84-1.04h0Zm10.88-3.61c-.69-.5-1.34-1.06-2.04-1.55,.85,.16,1.69,.23,2.54,.38,.05,.26,.13,.51,.19,.77-.22,.13-.46,.26-.69,.4h0Zm-1.47-9.13c-1.74-.35-3.47-.87-5.21-1.29,.81-.7,1.67-1.36,2.46-2.08,.65,.27,1.28,.61,1.92,.89,.26,.82,.57,1.64,.82,2.48h0Zm.55-19.62c-.44-.94-.86-1.9-1.32-2.83,1.7,.26,3.44,.44,5.11,.79-.57,.69-1.23,1.29-1.81,1.97-.65,.01-1.32,.07-1.98,.07h0Zm8.71-8.61c-.84-.2-1.64-.46-2.48-.64,.85-.18,1.66-.44,2.49-.64,.15,.22,.32,.42,.47,.63-.15,.22-.32,.43-.48,.65Zm-4.9-7.84c-1.48,.3-3.01,.46-4.52,.7,.28-.56,.54-1.12,.81-1.69,.97,0,1.95,.11,2.94,.14,.24,.29,.54,.55,.78,.86h0Zm10.52-29.85c-1.28-.98-2.57-1.95-3.89-2.88,.29-1.58,.54-3.17,.77-4.76,1.55-1.37,3.11-2.74,4.59-4.18,3.4-.55,6.83-1,10.32-1.26,.9,.61,1.75,1.3,2.64,1.94-.18,1.08-.29,2.17-.49,3.24-3.29,2.82-6.73,5.36-10.23,7.77-1.23,.02-2.45,.05-3.68,.12h0Zm-2.04-18.91c.03-.67,.1-1.34,.12-2.02,.39,.19,.8,.36,1.2,.56-.46,.48-.86,1-1.32,1.46h0Zm.09-10.44c-.08-2.38-.09-4.77-.3-7.16,5.54-1.67,11.18-2.94,16.86-3.81-3.02,4.93-6.35,9.67-10.08,14.13-2.14-1.12-4.3-2.18-6.48-3.16h0Zm-7.7-3.21c-.64-.24-1.26-.51-1.9-.74,.61-.25,1.23-.44,1.85-.67,.04,.47,.02,.94,.05,1.41h0Zm.3,8.16c-.02,2.44-.23,4.85-.4,7.27-4.12,1.03-8.14,2.27-12.09,3.7-.78-.38-1.55-.76-2.33-1.12-.03-.85-.07-1.69-.12-2.54,2.86-3.09,5.56-6.34,8.12-9.74,2.27,.78,4.58,1.51,6.82,2.43h0Zm-24.13,6.05c-.97-.36-1.94-.74-2.92-1.07,1.4-1.03,2.76-2.13,4.2-3.07,.09,.86,.12,1.71,.18,2.57-.5,.51-.95,1.07-1.46,1.57h0Zm-2.09-10.96c.46-.72,.86-1.48,1.31-2.21,.26,.04,.52,.07,.78,.11,.05,.27,.07,.54,.12,.8-.73,.46-1.49,.84-2.2,1.3h0Zm-6.8-3.38c-.85,1.28-1.84,2.49-2.74,3.75-.02-.07-.05-.14-.07-.21-.18-.54-.38-1.06-.56-1.6,.7-.7,1.49-1.34,2.22-2.02,.38,.04,.77,.04,1.15,.08h0Zm-3.9-7.83c-1.15-.08-2.3-.12-3.45-.16-.48-1.06-.96-2.12-1.47-3.17,1.23-3.46,2.37-6.98,3.29-10.57,2.57-.18,5.14-.39,7.74-.39,.96,2.39,1.7,4.85,2.51,7.29-2.98,2.22-5.86,4.54-8.61,7h0Zm2.66-21.72c-.41,.01-.82,.04-1.22,.06,.29-.27,.61-.51,.89-.78,.11,.23,.21,.48,.33,.71h0Zm-8.19-32.71c-.89,.82-1.81,1.58-2.68,2.43-2.04-2.36-4.07-4.74-6.32-6.98-1.41-1.41-2.93-2.66-4.39-3.97,4.01-.9,8.01-1.59,12.02-2.07,.59,3.49,1.1,7.01,1.38,10.59h0Zm-28.71-20.66c-2.21-1.46-4.48-2.8-6.76-4.1,1.3-1.77,2.59-3.54,3.98-5.23,.02,0,.04,0,.06-.01,1.72,3.5,3.27,7.09,4.65,10.75-.64-.48-1.27-.98-1.93-1.41h0Zm-6.63-16.53c-.14,.17-.31,.32-.45,.49-4.84,1.31-9.65,2.82-14.34,4.75-3.87-1.59-7.82-2.89-11.79-4.06-.02-.02-.04-.06-.06-.09-.36-.43-.76-.8-1.12-1.23,1.03-1.72,1.98-3.48,3.1-5.14,.71-.23,1.41-.54,2.12-.75,2.86-.86,5.78-1.52,8.7-2.17,3.65,.85,7.26,1.86,10.81,3.04,1.09,1.68,2.02,3.45,3.03,5.17h0Zm-36.26-9.21c-.75-.72-1.54-1.38-2.3-2.07,2.32,.04,4.61,.25,6.91,.42-1.54,.56-3.1,1.03-4.62,1.65h0Zm-7.46,3.47c-1.69,.82-3.37,1.64-5.03,2.54-1.79-.19-3.57-.45-5.36-.57,1.11-2.36,2.22-4.73,3.48-7,.14-.04,.3-.08,.45-.12,.19-.01,.39,0,.59-.02,2.02,1.63,3.93,3.39,5.86,5.17h0Zm-41.99,3.77c-.22,.04-.44,.09-.65,.14,.51-.22,.98-.49,1.49-.7,.01,0,.03-.01,.05-.02-.3,.18-.6,.37-.89,.58Zm-38.57,28.66c-1.51,.62-2.96,1.38-4.45,2.05,1.52-1.73,3-3.5,4.64-5.14-.05,1.04-.17,2.05-.19,3.09h0Zm-70.67,177.65c0-.11,0-.2-.01-.3,1.63-2.03,3.4-3.95,5.16-5.86,.84,1.72,1.68,3.43,2.59,5.11-.19,1.73-.44,3.48-.55,5.22-2.36-1.11-4.73-2.22-7.01-3.48-.07-.21-.12-.45-.19-.68h0Zm6.81,12.39c0,1.64,.16,3.27,.22,4.91-1.03-2.07-2.1-4.12-3.01-6.26,.93,.44,1.84,.93,2.79,1.35h0Zm16.13,44.34c-.86-2.14-1.55-4.33-2.28-6.52,1.11,1.19,2.15,2.46,3.3,3.6-.37,.96-.66,1.94-1.02,2.91h0Zm.16-15.11c-2.43-2.84-4.73-5.79-6.88-8.85-.64-3.7-1.11-7.42-1.39-11.16,1.12-1.66,2.39-3.2,3.59-4.8,.45,.14,.92,.23,1.37,.38,2.67,3.36,5.53,6.57,8.55,9.65,0,5.05,.36,10.08,.96,15.06-.09,.19-.17,.39-.27,.58-1.97-.29-3.96-.49-5.93-.87h0Zm59.66,25.52c1.14-.4,2.29-.76,3.42-1.2,.96,2.97,1.92,5.94,3.11,8.88,.85,2.08,1.88,4.02,2.82,6.04-4.21-.74-8.34-1.69-12.39-2.86,.83-3.63,1.83-7.25,3.03-10.86h0Zm67.64,9.45c-.39,.13-.77,.29-1.17,.42-.01-.62-.09-1.23-.09-1.86,.43,.48,.83,.97,1.26,1.43h0Zm37.59-33.57c.03,.34,.03,.68,.05,1.03-.29-.15-.6-.27-.89-.42,.29-.18,.55-.41,.84-.61h0Zm33.77-.51c.28,.66,.48,1.37,.75,2.04-.39,.76-.74,1.54-1.16,2.29-.99-1.48-1.84-3.07-2.77-4.61,1.05,.09,2.11,.23,3.17,.28h0Zm13.85-9.13c.36-.98,.73-1.94,1.06-2.93,1.01,1.39,2.1,2.73,3.03,4.14-.86,.09-1.72,.12-2.58,.18-.49-.48-1.04-.91-1.51-1.4h0Zm10.9-2.16c.72,.46,1.48,.86,2.21,1.31-.05,.26-.07,.52-.12,.79-.27,.05-.53,.07-.8,.12-.45-.73-.84-1.49-1.3-2.21h0Zm-.29-9.49c.6-.19,1.18-.41,1.77-.62,.68,.69,1.31,1.46,1.98,2.18-.03,.38-.04,.75-.08,1.13-1.25-.84-2.44-1.81-3.66-2.69h0Zm34.95-8.46c-.89-.85-1.79-1.69-2.71-2.52-.21-1.61-.44-3.2-.71-4.8,1.32-.91,2.61-1.86,3.89-2.82,2.06,.14,4.12,.26,6.17,.29,2.79,2.01,5.53,4.12,8.18,6.39,.2,1.06,.32,2.16,.49,3.23-.89,.63-1.74,1.33-2.64,1.94-4.3-.32-8.51-.96-12.68-1.73h0Zm2.5-21.51c-3.63-2.18-7.36-4.14-11.14-5.92-.3-.86-.59-1.72-.91-2.57,.53-.57,1-1.19,1.52-1.77,4.27-.16,8.54-.54,12.82-1.15,1.07,2.17,2.18,4.31,3.12,6.56-1.74,1.7-3.59,3.25-5.41,4.84h0Zm10.15-12.73s0,0,.01,0c.61,.26,1.2,.57,1.8,.84-.32,.37-.66,.7-.98,1.06-.29-.62-.54-1.27-.82-1.89h0Zm-.03-28.32c.18-.38,.33-.77,.5-1.14,.19,.22,.39,.42,.59,.64-.37,.16-.72,.35-1.09,.5h0Zm-2.2-14.83c-.29-.26-.58-.52-.86-.77,.38,0,.74,.05,1.11,.07-.08,.23-.17,.46-.25,.7h0Zm4.39-28.85c-.86-.55-1.74-1.05-2.61-1.58,1.69-2.07,3.2-4.25,4.75-6.4-.06,2.65-.19,5.29-.39,7.89-.59,.02-1.16,.06-1.74,.09h0Zm-26.3-30.68c.24,1.06,.55,2.12,.77,3.18-1.64,3.19-3.41,6.25-5.31,9.23-1.81,.78-3.64,1.51-5.42,2.38-1.56-.41-3.13-.8-4.71-1.15-.35-1.56-.73-3.12-1.14-4.67,.56-1.14,1.01-2.33,1.53-3.48,3.54-2.28,7.25-4.36,11.09-6.28,1.07,.23,2.12,.54,3.2,.8h0Zm-19.18-1.85c-.14-.39-.3-.76-.44-1.14,.28,.02,.57,.02,.85,.04-.14,.37-.27,.74-.41,1.11h0Zm-3.62-8.89c-.89-2.01-1.84-4.01-2.85-5.98,4.18-3.47,8.59-6.62,13.17-9.47-.89,5.31-2.11,10.59-3.71,15.76-2.2-.19-4.4-.23-6.61-.31h0Zm-6.61-12.77c-.76-1.28-1.49-2.57-2.31-3.82,.03-.58,.06-1.16,.09-1.73,3.16-.25,6.33-.48,9.54-.48,.28,0,.55,.04,.83,.04-2.78,1.9-5.52,3.86-8.15,5.99h0Zm-2.97-26.02c-.21-1.75-.6-3.45-.88-5.19,1.35-.07,2.7-.12,4.03-.14,.59,.62,1.14,1.25,1.71,1.88-1.61,1.16-3.28,2.21-4.86,3.45h0Zm-9.97-11.98c-3.38,.41-6.75,.92-10.12,1.62,2.7-2.84,5.49-5.6,8.45-8.18,.04,.03,.08,.05,.12,.09,.62,2.11,1.05,4.3,1.55,6.46h0Zm-16.37-2.78c-1.35-3.7-2.87-7.31-4.55-10.86,2.32-.42,4.64-.76,6.97-1.05,2.02,1.16,4.04,2.33,6,3.61-2.94,2.64-5.74,5.4-8.41,8.3h0ZM114.97,359.4c1.06,.93,2.2,1.77,3.29,2.66,.45,1.55,1,3.07,1.5,4.6-2.36-.12-4.73-.19-7.08-.46,.69-2.29,1.48-4.54,2.29-6.8h0Zm7.54,15.03c.62,1.52,1.38,2.97,2.06,4.47-1.73-1.53-3.51-3.02-5.16-4.66,1.04,.05,2.07,.17,3.1,.19h0Zm39.95,16.01c.19-1.62,.45-3.23,.71-4.84,3.05,.85,6.15,1.6,9.3,2.21-3.11,1.34-6.28,2.53-9.49,3.6-.18-.32-.34-.65-.53-.97h0Zm18.77-18.44c-1.21-2.98-2.2-6-3.16-9.01,.52-.24,1.05-.48,1.56-.73,1.49,.29,2.99,.44,4.49,.66-.98,3.25-1.82,6.55-2.53,9.86-.11-.27-.25-.51-.37-.78h0Zm53.32,12.89c2.27-.71,4.52-1.48,6.73-2.32,1.75,1.66,3.46,3.34,5.33,4.9-.2,.38-.36,.79-.56,1.16-2.54,4.69-5.52,9.1-8.67,13.37-1.34-5.62-2.33-11.32-2.84-17.11h0Zm31.16-23.67c-.22,.16-.42,.33-.64,.48-.22-.15-.42-.32-.64-.47,.19-.84,.46-1.65,.64-2.49,.18,.84,.44,1.65,.64,2.48Zm29.18,14.33c0,.36-.05,.71-.06,1.08-.23-.08-.45-.17-.68-.25,.26-.27,.5-.55,.75-.83h0Zm5.98-21.16c-.13-.85-.2-1.69-.36-2.54,.48,.71,1.04,1.36,1.54,2.06-.14,.22-.27,.46-.41,.68-.26-.06-.51-.14-.77-.2h0Zm34.57,.89c.25,.63,.45,1.27,.69,1.9-.48,.04-.96,.02-1.46,.05,.25-.65,.52-1.29,.77-1.95h0Zm5.76-5.36c-.79-1.82-1.52-3.66-2.39-5.46,.41-1.56,.8-3.13,1.14-4.71,1.57-.35,3.14-.73,4.69-1.14,1.14,.56,2.32,1.01,3.48,1.52,2.3,3.57,4.39,7.3,6.33,11.16-.22,1.06-.55,2.12-.8,3.17-1.06,.24-2.12,.56-3.19,.77-3.2-1.64-6.26-3.42-9.26-5.31h0Zm23.18-18.31c1.99-.89,3.96-1.83,5.92-2.82,3.48,4.18,6.62,8.57,9.48,13.16-5.3-.89-10.55-2.1-15.71-3.7,.2-2.22,.24-4.44,.32-6.64h0Zm10.94-35.66c.49-.44,1-.86,1.49-1.32,.14,.41,.31,.81,.44,1.22-.65,.02-1.29,.1-1.93,.1h0Zm16.9-18.65c.64-.87,1.33-1.69,1.95-2.57,.55-.19,1.1-.38,1.66-.58,1.18,2.36,2.33,4.75,3.37,7.22-2.28-1.43-4.61-2.79-6.98-4.07h0Zm7.83-28.79c-1.25,2.97-2.69,5.8-4.14,8.61-.54-.2-1.09-.39-1.64-.59-.86-1.27-1.82-2.45-2.73-3.67,3.02-1.61,5.95-3.37,8.82-5.21-.12,.28-.19,.57-.32,.86h0Zm-17.6-6.64c.79-2.04,1.52-4.11,2.2-6.2,5.41,.5,10.75,1.38,16,2.6-4.38,3.12-8.95,5.97-13.74,8.5-1.43-1.7-2.96-3.29-4.47-4.9h0Zm4.35-13.66c.38-1.45,.76-2.89,1.08-4.36,.43-.39,.86-.78,1.29-1.17,2.41,2.05,4.8,4.12,7.09,6.4,.21,.21,.38,.43,.57,.63-3.32-.61-6.66-1.16-10.03-1.51h0Zm3.45-21.41c.23-3.11,.47-6.22,.47-9.39,0-1.96-.07-3.92-.18-5.86,3.43,2.17,6.71,4.49,9.85,6.97-2.07,2.88-4.2,5.73-6.54,8.46-1.2-.05-2.4-.16-3.61-.18h0Zm-14.28-31.54c-2.93-1.23-5.89-2.21-8.85-3.2,.45-1.13,.82-2.27,1.23-3.4,3.42-1.09,6.86-2.01,10.31-2.77,1.08,3.89,1.92,7.89,2.59,11.93-1.75-.85-3.45-1.79-5.29-2.55h0Zm-25.48-7.64c-1.49-.29-2.99-.44-4.49-.66,.99-3.26,1.83-6.56,2.54-9.88,.12,.27,.26,.52,.38,.79,1.21,2.98,2.2,5.99,3.16,9.01-.54,.25-1.07,.5-1.58,.74Zm-11.15-28.15c-2.25-.14-4.52-.25-6.81-.25-3.17,0-6.29,.24-9.4,.47-.02-1.21-.12-2.41-.18-3.61,2.93-2.51,5.97-4.8,9.07-6.99,2.61,3.29,5.04,6.77,7.32,10.39h0Zm-55.49-54.47c2.3-.14,4.61-.34,6.93-.36-.77,.69-1.57,1.34-2.33,2.05-1.5-.64-3.07-1.12-4.6-1.7h0Zm-148.56,47.37c-.18,.27-.34,.56-.52,.83-.37,.24-.74,.46-1.11,.7,.07-.07,.14-.16,.21-.23,.46-.45,.95-.85,1.41-1.3h0Zm-11.59,21.52c-1.03,.02-2.05,.12-3.09,.16,1.66-1.61,3.43-3.07,5.18-4.58-.68,1.49-1.46,2.93-2.1,4.42h0Zm-2.82,7.74c-.62,1.79-1.23,3.57-1.77,5.38-1.38,1.11-2.8,2.18-4.14,3.36-.88-2.46-1.77-4.91-2.49-7.42,.08-.16,.18-.31,.27-.47,.11-.12,.22-.23,.32-.36,2.59-.28,5.19-.38,7.8-.49h0Zm-26.99,32.33c-.15,.22-.3,.45-.44,.68,.22-.54,.37-1.1,.6-1.64,.02-.06,.06-.12,.09-.18-.08,.38-.16,.76-.24,1.14Zm-7.04,47.57c-.64,1.51-1.12,3.08-1.7,4.61-.15-2.31-.34-4.62-.36-6.94,.7,.77,1.35,1.57,2.05,2.33h0Zm104.84,122.38c2.23,.2,4.46,.24,6.69,.32,.89,2,1.83,3.98,2.83,5.93-4.2,3.49-8.61,6.65-13.22,9.51,.89-5.31,2.11-10.58,3.7-15.75h0Zm15.11,.36c.39-.01,.77-.04,1.15-.06-.27,.26-.57,.48-.83,.73-.11-.23-.21-.45-.32-.67h0Zm17.23,23.41c1.02-.22,2.02-.5,3.03-.75,.26,2.67,.73,5.3,1.17,7.93-1.85-1.93-3.63-3.91-5.34-5.91,.38-.43,.77-.85,1.14-1.28h0Zm26.02,19.08c2.94-1.2,5.72-2.6,8.52-4,.48,1.11,1.02,2.17,1.52,3.25-1.64,3.18-3.41,6.23-5.29,9.2-3.5-1.98-6.89-4.2-10.22-6.56,1.82-.64,3.66-1.17,5.46-1.9h0Zm14.34-15.9c-.93-.59-1.9-1.11-2.81-1.72-1.1-3.43-2.02-6.87-2.79-10.32,.72-1.85,1.49-3.68,2.14-5.56,1.39-.82,2.77-1.65,4.13-2.51,1.36,.86,2.74,1.69,4.13,2.51,.42,1.22,.95,2.39,1.41,3.6-.89,4.13-2.05,8.25-3.41,12.33-.91,.6-1.87,1.11-2.8,1.67h0Zm14.83-12.34c.4,.19,.82,.35,1.21,.54-.23,.2-.45,.41-.68,.62-.17-.39-.37-.77-.54-1.15h0Zm8.94,3.76c2.04,.78,4.09,1.5,6.17,2.18-.5,5.43-1.38,10.78-2.61,16.05-3.13-4.38-5.98-8.95-8.51-13.73,1.72-1.45,3.32-2.99,4.95-4.5h0Zm13.63,4.32c1.43,.37,2.83,.75,4.28,1.06,.39,.44,.79,.88,1.18,1.31-2.05,2.41-4.12,4.8-6.4,7.09-.18,.18-.38,.33-.56,.5,.61-3.29,1.16-6.61,1.5-9.96Zm19.32-21.8c.65,.03,1.28,.1,1.92,.12-.18,.38-.34,.77-.53,1.14-.46-.43-.95-.82-1.39-1.26h0Zm10.35,.1c2.39-.07,4.79-.09,7.19-.3,1.67,5.53,2.93,11.15,3.8,16.82-4.93-3.02-9.67-6.35-14.13-10.1,1.11-2.11,2.16-4.25,3.14-6.42h0Zm16.8,6.52c-.6-2.63-1.29-5.25-2.07-7.85,1.08-.16,2.16-.25,3.24-.44,.52,.25,1.03,.5,1.55,.75-.83,2.52-1.71,5.04-2.73,7.54h0Zm17.84-12.54c2.97-.96,5.94-1.91,8.87-3.11,2.1-.86,4.05-1.89,6.08-2.84-.74,4.22-1.69,8.35-2.87,12.4-3.64-.84-7.28-1.84-10.89-3.04-.4-1.13-.75-2.28-1.19-3.41h0Zm24.14-35.96c1.21-.02,2.4-.12,3.6-.18,2.53,2.95,4.84,6.01,7.04,9.13-3.31,2.62-6.8,5.06-10.43,7.34,.14-2.28,.25-4.57,.25-6.88,0-3.18-.24-6.29-.47-9.41h0Zm-1.08-15.88c-.42-.39-.86-.77-1.28-1.16-.21-1-.49-1.98-.73-2.97,2.65-.26,5.25-.73,7.87-1.16-1.92,1.84-3.86,3.61-5.86,5.29h0Zm17.73-27.12c-1.2-2.94-2.59-5.72-3.99-8.51,1.12-.48,2.18-1.03,3.27-1.54,3.19,1.64,6.25,3.42,9.22,5.31-1.99,3.5-4.21,6.91-6.59,10.25-.64-1.84-1.18-3.68-1.92-5.51h0Zm-.66-18.44c-1.09-.52-2.15-1.08-3.25-1.57,1.42-2.78,2.85-5.55,4.07-8.48,.88-2.1,1.54-4.23,2.3-6.35,2.46,3.52,4.73,7.12,6.76,10.82-3.18,2-6.47,3.86-9.88,5.57h0Zm.02-32.64c-1.51-1.72-2.98-3.48-4.64-5.13-2.24-2.24-4.61-4.27-6.98-6.3,.85-.88,1.61-1.79,2.43-2.68,3.86,.3,7.65,.82,11.39,1.47-.48,4.23-1.23,8.45-2.2,12.65h0Zm-3.14-21.16c1.09-1.39,2.02-2.87,3.05-4.3,1.01,.91,2,1.83,2.98,2.77-.02,.85-.07,1.69-.12,2.53-1.98-.33-3.91-.76-5.92-1h0Zm1.42-15.54c-2.68-2.09-5.41-4.1-8.28-5.98,3.92-.11,7.85-.08,11.77,.2,0,.03,.01,.05,.02,.09-1.05,1.95-2.33,3.81-3.51,5.7h0Zm2.23-13.44c-3.93-.21-7.86-.24-11.8-.08,1.66-3.56,3.13-7.19,4.45-10.88,1.94,1.34,3.81,2.74,5.67,4.19,.61,2.25,1.21,4.5,1.68,6.78h0Zm-13.89-15.14c-1.29,3.8-2.77,7.52-4.44,11.16-.62-3.48-1.38-6.91-2.28-10.29,2.21-.35,4.44-.69,6.66-.91,.02,0,.04,.03,.06,.04h0Zm-30.43-.88c-1.14,.41-2.28,.76-3.41,1.2-.96-2.97-1.92-5.94-3.11-8.88-.86-2.12-1.91-4.09-2.88-6.14,4.24,.75,8.39,1.7,12.45,2.88-.83,3.66-1.84,7.32-3.05,10.95h0Zm5.23-23.34c-.19,1.61-.45,3.22-.71,4.82-3-.84-6.06-1.57-9.15-2.19,3.07-1.32,6.2-2.48,9.38-3.54,.17,.3,.32,.61,.49,.91h0Zm-101.62-59.69c-.45-.1-.91-.21-1.37-.3,.12,0,.24-.01,.37-.01,.68,0,1.35,.07,2.04,.08-.35,.07-.69,.16-1.04,.23Zm-80.41,9.49c-7.11,3.37-13.75,7.32-19.92,11.8,1.31-6.1,3.19-12.04,5.43-17.84,5.09,1.3,10.1,2.81,14.91,4.73-.16,.44-.28,.88-.43,1.31h0Zm-113.54,180.74c.37,8.59,1.61,16.96,3.6,25.04-5.55-3.8-10.71-8.09-15.52-12.76,3.41-4.65,7.09-9.02,11.07-13.05,.28,.26,.57,.51,.85,.77h0Zm6.28,38.73c1.21,8.22,3.27,16.41,6.2,24.5-.18,.38-.38,.71-.55,1.09-5.22-2.23-10.26-4.97-15.19-7.98,2.68-6.12,5.84-12.02,9.54-17.61h0Zm9.65,35.25c.4,.14,.8,.25,1.2,.39,3.38,7.13,7.34,13.81,11.84,20-6.09-1.31-12.02-3.17-17.8-5.41,1.3-5.11,2.82-10.14,4.76-14.98h0Zm45.32,51.37c.16,.24,.29,.5,.45,.75-.34-.34-.62-.71-.95-1.05,.15,.11,.33,.2,.5,.3h0Zm73.82-1.58c-2.94,2.52-5.99,4.83-9.1,7.02-2.61-3.3-5.05-6.79-7.32-10.41,2.27,.14,4.54,.25,6.85,.25,3.17,0,6.28-.24,9.39-.47,.03,1.21,.12,2.41,.18,3.61h0Zm7.75,3.21c.89-.82,1.82-1.59,2.69-2.43,2.04,2.36,4.07,4.74,6.31,6.98,1.45,1.45,3,2.73,4.52,4.08-4.04,.91-8.08,1.62-12.13,2.09-.58-3.53-1.1-7.09-1.38-10.72h0Zm35.61,24.69c-1.31,1.8-2.62,3.59-4.03,5.3-.05,.01-.12,.02-.18,.04-1.77-3.6-3.35-7.28-4.75-11.04,2.93,2.04,5.91,3.93,8.95,5.7h0Zm14.55-1.08c-1.2-.53-2.33-1.22-3.5-1.79,.9-1.44,1.82-2.87,2.67-4.36,.95,1.72,1.98,3.38,3,5.04-.73,.34-1.43,.78-2.17,1.11Zm3.4-14.4c.52-1.09,1.08-2.15,1.57-3.25,2.77,1.42,5.55,2.85,8.48,4.07,2.07,.87,4.18,1.52,6.27,2.27-3.5,2.46-7.09,4.7-10.78,6.74-1.98-3.16-3.83-6.43-5.54-9.83h0Zm12.99-6.17c-2.97-1.25-5.8-2.69-8.61-4.14,.2-.54,.39-1.07,.59-1.61,1.27-.86,2.46-1.83,3.69-2.74,1.61,3.01,3.36,5.94,5.2,8.8-.29-.12-.58-.19-.87-.32h0Zm24.73,1.53c2.24-2.24,4.27-4.62,6.32-6.98,.87,.84,1.78,1.61,2.67,2.41-.3,3.87-.83,7.67-1.48,11.44-4.23-.49-8.45-1.25-12.66-2.21,1.73-1.53,3.5-3.01,5.15-4.66h0Zm18.29-23.34c2.05,1.69,4.23,3.2,6.38,4.75-2.66-.06-5.29-.19-7.91-.39-.02-.57-.05-1.14-.09-1.7,.57-.88,1.07-1.77,1.61-2.66h0Zm-1.38,11.94c3.12,.23,6.23,.47,9.4,.47,2,0,3.99-.07,5.95-.19-2.18,3.45-4.52,6.76-7.01,9.91-2.91-2.07-5.77-4.23-8.53-6.58,.06-1.2,.16-2.4,.18-3.61h0Zm43.23,2.66c-3.8-1.29-7.52-2.79-11.18-4.46,3.5-.62,6.96-1.39,10.36-2.29,.35,2.2,.68,4.41,.9,6.61-.02,.04-.05,.09-.09,.14h0Zm-14.12-11.66c.83-1.74,1.75-3.41,2.51-5.21,1.23-2.93,2.21-5.89,3.21-8.85,1.12,.44,2.25,.81,3.39,1.22,1.09,3.41,2,6.82,2.76,10.25-3.88,1.08-7.84,1.91-11.87,2.59h0Zm17.91-9.9c1.9,.55,3.8,.99,5.71,1.44-.27,.76-.45,1.56-.75,2.32-1.22,.47-2.52,.79-3.76,1.22-.39-1.66-.75-3.31-1.2-4.97h0Zm36.46-44.17c-1.17-1.64-2.24-3.33-3.5-4.93,1.78-.22,3.5-.61,5.26-.89,.07,1.37,.12,2.73,.14,4.09-.62,.59-1.27,1.16-1.91,1.73h0Zm-9.54-11.97c-.81-.89-1.58-1.8-2.42-2.68,2.36-2.04,4.73-4.06,6.98-6.31,1.43-1.43,2.7-2.96,4.02-4.44,.91,4.01,1.61,8.03,2.08,12.06-3.52,.59-7.05,1.09-10.65,1.38h0Zm24.66-35.54c1.82,1.32,3.62,2.65,5.34,4.06,.01,.04,.02,.07,.02,.11-3.6,1.78-7.29,3.36-11.06,4.76,2.04-2.93,3.93-5.9,5.7-8.93h0Zm4.65-30.75c-1.26,1-2.57,1.94-3.88,2.89-1.54-2.73-3.17-5.41-4.93-8.04,3.11,1.23,6.14,2.62,9.13,4.12-.09,.34-.22,.69-.31,1.04h0Zm-11.81-21.94c.58-2.97,.95-5.95,1.31-8.93,1.61,.39,3.23,.7,4.8,1.15,.19,.25,.37,.52,.56,.78-2.12,2.42-4.37,4.75-6.68,7h0Zm-2.72-59.1c-.44-1.51-.98-2.98-1.48-4.47,2.36,.12,4.71,.19,7.05,.46-.67,2.25-1.45,4.48-2.25,6.71-1.07-.95-2.22-1.79-3.32-2.7h0Zm-4.22-12.24c-.62-1.51-1.38-2.96-2.05-4.44,1.72,1.52,3.49,3,5.13,4.63-1.03-.05-2.05-.16-3.08-.19Zm-10.91-5.52c-.41,1.95-1,3.86-1.5,5.79-.22,.02-.44,0-.66,.02-4.37-2.51-8.85-4.84-13.54-6.81-1.61-3.83-3.46-7.52-5.43-11.14,.06-.61,.05-1.21,.11-1.82,1.93-.49,3.84-1.06,5.81-1.45,3.34,1.71,6.58,3.59,9.74,5.61,1.98,3.18,3.81,6.44,5.48,9.79h0Zm-33.64-18.07c-4.02,1.41-7.96,3.01-11.82,4.82,.23-4.29,.22-8.58,.02-12.87,2.48,.52,4.91,1.2,7.36,1.87,1.54,2.01,3.03,4.07,4.45,6.18h0Zm-21.75-17.32c-4.2-.46-8.43-.7-12.68-.74-.11-.11-.21-.24-.32-.35-3.5-3.49-7.25-6.68-11.12-9.7-.06-.2-.1-.41-.16-.62,1.6-1.2,3.14-2.46,4.8-3.59,3.74,.29,7.45,.75,11.16,1.39,3.06,2.16,6.01,4.46,8.85,6.89,.39,1.96,.58,3.95,.86,5.93-.48,.24-.92,.54-1.39,.79h0Zm-28.72-23c-.41-.95-.91-1.86-1.34-2.8,2.14,.91,4.18,1.98,6.25,3.01-1.64-.06-3.27-.22-4.91-.21h0Zm-116.11-25.69c-2.88,4.85-5.5,9.81-7.68,14.92-4.73-1.89-9.64-3.4-14.62-4.72,2.32-5,4.93-9.85,7.93-14.48,4.9,1.11,9.68,2.57,14.38,4.29h0ZM46.42,306.24c2.67-6.35,5.92-12.25,9.51-17.85,5.43,5.16,11.34,9.79,17.63,13.92-4.31,6.25-8.01,12.87-11.12,19.75-5.39-3.79-10.59-8.01-15.41-12.83-.43-.42-.79-.9-1.2-1.33,.21-.55,.36-1.11,.59-1.66h0Zm19.58,27.21c4.86,2.88,9.83,5.51,14.95,7.7-1.9,4.75-3.41,9.69-4.74,14.7-5.01-2.33-9.88-4.95-14.52-7.95,1.11-4.91,2.59-9.72,4.31-14.45h0Zm88.19,75.95c-1.61-1.66-3.07-3.43-4.57-5.17,1.48,.68,2.91,1.46,4.41,2.09,.02,1.03,.12,2.05,.16,3.08h0Zm32.34-2.08c-.22-3.24-.28-6.5-.24-9.74,1.68,2.5,3.52,4.85,5.36,7.21-1.45,.89-2.85,1.85-4.33,2.66-.26-.05-.52-.1-.79-.13h0Zm16.49-.82c1.62-1.18,3.26-2.32,4.85-3.56,.22,1.8,.61,3.54,.9,5.31-1.34,.07-2.68,.12-4.02,.14-.59-.62-1.15-1.27-1.73-1.9h0Zm22.72,19.56c2.95-2.65,5.76-5.43,8.45-8.34,1.34,3.7,2.86,7.31,4.54,10.86-2.33,.43-4.68,.77-7.04,1.06-2.01-1.16-4.01-2.31-5.95-3.58h0Zm38.32,24.16c.25,.05,.48,.14,.73,.19-.44,0-.86-.04-1.29-.05,.19-.03,.37-.1,.56-.14h0Zm17.14-24.03c-.98-1.26-1.93-2.56-2.87-3.86,2.76-1.55,5.47-3.21,8.13-5-1.25,3.13-2.64,6.18-4.14,9.2-.38-.1-.75-.23-1.12-.34h0Zm40.01-17.29c.34-1.98,.77-3.95,1.02-5.97,1.43,1.11,2.92,2.06,4.38,3.11-.91,1.02-1.84,2.01-2.77,2.98-.87-.02-1.74-.07-2.62-.12Zm30-2.23c.22-3.95,.24-7.89,.09-11.85,3.55,1.66,7.18,3.14,10.87,4.46-1.36,1.95-2.77,3.86-4.24,5.72-2.23,.6-4.45,1.2-6.72,1.67h0Zm23.33,.84c1.51-.62,2.96-1.38,4.45-2.05-1.52,1.73-3,3.5-4.64,5.13,.05-1.04,.16-2.05,.19-3.09Zm5.52-10.91c-1.96-.41-3.87-1-5.81-1.5-.02-.27,0-.53-.02-.8,2.48-4.34,4.8-8.79,6.76-13.46,3.81-1.59,7.48-3.43,11.07-5.39,.65,.07,1.28,.07,1.93,.12,.49,1.94,1.06,3.86,1.45,5.84-1.7,3.32-3.57,6.56-5.59,9.72-3.17,1.97-6.43,3.8-9.78,5.47h0Zm26.36-20.62c1.03-.02,2.05-.12,3.09-.16-1.67,1.61-3.44,3.07-5.18,4.58,.68-1.48,1.46-2.92,2.1-4.42h0Zm-8.32-13.09c-1.41-4.02-3.02-7.95-4.82-11.81,4.3,.22,8.62,.22,12.92,.01-.5,2.46-1.19,4.88-1.85,7.3-2.04,1.56-4.12,3.08-6.25,4.5h0Zm23.57-52.36c-2.13,.64-4.35,1.05-6.54,1.57-.41-3.36-.91-6.7-1.61-10.04,2.84,2.7,5.59,5.49,8.16,8.45,0,0,0,.02-.02,.03h0Zm23.3-26.76c.14,2.29,.34,4.57,.35,6.88-.68-.76-1.33-1.55-2.04-2.3,.63-1.5,1.11-3.05,1.69-4.57h0Zm.19-35.64c-.56-1.54-1.03-3.11-1.65-4.62,.71-.75,1.38-1.54,2.07-2.3-.03,2.32-.25,4.62-.42,6.91h0Zm-16.76-7.97c-3.84-1.85-7.77-3.5-11.78-4.95,3.2-2.88,6.25-5.92,9.14-9.11,1.39,2.11,2.62,4.31,3.86,6.5-.33,2.53-.73,5.06-1.23,7.57h0Zm-1.61-27.22c-.48-.16-1-.25-1.48-.41-2.64-3.3-5.46-6.46-8.45-9.5,0-5.12-.38-10.2-.98-15.25,.09-.17,.2-.33,.29-.5,1.98,.28,3.98,.48,5.94,.86,2.44,2.84,4.73,5.79,6.89,8.86,.64,3.69,1.11,7.4,1.39,11.12-1.12,1.67-2.4,3.22-3.6,4.81h0Zm-5.55-36.98c.38-.96,.67-1.95,1.02-2.93,.87,2.15,1.55,4.36,2.29,6.54-1.11-1.19-2.15-2.46-3.31-3.61Zm-24.47-41.28c-.24-.37-.46-.74-.7-1.11,.05,.05,.12,.11,.18,.16,.46,.46,.88,.97,1.34,1.45-.27-.17-.55-.32-.81-.5h0Zm-28.93-21.7c.29,2.59,.39,5.2,.5,7.81-1.79-.62-3.57-1.23-5.38-1.76-1.13-1.41-2.21-2.85-3.4-4.2,2.46-.88,4.91-1.77,7.41-2.49,.17,.09,.33,.19,.5,.28,.13,.11,.25,.24,.39,.36h0Zm-30.86-19.03s.04,.02,.05,.02c-.36-.07-.71-.16-1.07-.22-.19-.13-.39-.25-.59-.39,.53,.22,1.07,.36,1.6,.59h0Zm-64.93-21.92c-.24-.27-.47-.54-.71-.8,3.74-3.61,7.77-6.95,12.02-10.07,4.26,4.5,8.24,9.27,11.75,14.41-7.46-1.84-15.15-3.07-23.05-3.54h0ZM89.24,185.5c-.4,.14-.81,.25-1.21,.4-2.11-5.27-3.74-10.76-5.09-16.35,6.23-2.43,12.66-4.37,19.23-5.71-4.95,6.65-9.27,13.88-12.92,21.66h0Zm-4.62,11.25c-2.65,7.43-4.56,14.94-5.76,22.49-3.38-5.24-6.26-10.77-8.77-16.45,4.54-2.7,9.15-5.18,13.93-7.22,.2,.41,.41,.79,.61,1.18h0Zm-41.66,119.04c5.19,5.05,10.71,9.54,16.49,13.52-1.72,4.55-3.18,9.2-4.38,13.92-5.61-4.2-10.84-8.9-15.67-14.1,.89-4.47,2.13-8.91,3.56-13.34h0Zm36.59,72.39c0-.15-.02-.3-.02-.45,0-7.32,.73-14.46,2.04-21.41,7.1,2.68,14.42,4.73,21.91,6.1-1.62,7.39-2.64,14.87-2.91,22.39-6.95-1.52-13.87-3.6-20.66-6.46-.13-.05-.24-.13-.36-.18h0Zm82.71,28.76c-.28-2.58-.39-5.18-.49-7.79,1.83,.63,3.65,1.25,5.51,1.8,1.09,1.35,2.13,2.74,3.27,4.04-2.46,.88-4.92,1.77-7.42,2.49-.24-.13-.48-.28-.71-.41-.05-.04-.1-.09-.15-.13h0Zm67.15,20.75c.26-.02,.52-.08,.79-.11,1.32,.72,2.71,1.36,4.06,2.03-1.75,1.58-3.47,3.2-5.31,4.67-1.13-2.1-2.17-4.26-3.19-6.41,1.22-.08,2.44-.06,3.66-.18h0Zm59.39,7.79c-2.3-.03-4.58-.25-6.87-.42,1.52-.56,3.08-1.02,4.58-1.64,.75,.73,1.54,1.38,2.29,2.06h0Zm1.1-17.21c1.84-3.83,3.48-7.73,4.93-11.73,2.89,3.2,5.92,6.24,9.12,9.13-2.09,1.38-4.27,2.58-6.43,3.82-2.55-.32-5.1-.72-7.62-1.22h0Zm22.7,9.98c1.64,0,3.27-.16,4.91-.22-2.07,1.03-4.12,2.1-6.26,3.01,.44-.93,.93-1.84,1.35-2.79h0Zm49.58-26.48c1.55-.45,3.07-1,4.6-1.5-.12,2.34-.19,4.69-.45,7.01-2.28-.67-4.53-1.46-6.77-2.27,.92-1.05,1.75-2.17,2.62-3.24h0Zm33.18-15.09c.22-.14,.46-.26,.68-.41-.32,.33-.67,.61-1,.93,.12-.17,.21-.35,.32-.52Zm21.7-28.93c-2.58,.28-5.19,.39-7.8,.49,.63-1.83,1.25-3.66,1.8-5.51,1.37-1.11,2.77-2.16,4.1-3.32,.89,2.46,1.77,4.9,2.49,7.4-.13,.26-.3,.51-.44,.77-.05,.06-.1,.12-.15,.17h0Zm4.2-13.88c1.16-1.16,2.2-2.42,3.3-3.61-.73,2.19-1.42,4.39-2.29,6.54-.35-.98-.64-1.96-1.02-2.92h0Zm23.97-123.7c-1.63,2.03-3.4,3.95-5.17,5.87-.84-1.72-1.68-3.43-2.59-5.11,.19-1.78,.44-3.55,.56-5.33,2.36,1.11,4.72,2.21,6.99,3.48,.07,.23,.12,.46,.19,.69,.01,.14,0,.27,.02,.41h0Zm-7.02-17.68c1.02,2.06,2.09,4.09,2.99,6.21-.93-.44-1.84-.92-2.77-1.34,0-1.62-.16-3.25-.22-4.88h0Zm-1.96-18.47c-.05-.25-.11-.5-.16-.75,.24,.55,.54,1.07,.77,1.63,.01,.03,.02,.07,.04,.11-.22-.34-.43-.66-.65-.99Zm-37.09-69.05c-.37,.01-.73,.04-1.09,.05-6.37-5.86-13.2-10.92-20.36-15.25,6.62-1.25,13.33-1.86,20.04-1.95,.88,5.72,1.37,11.45,1.41,17.15h0Zm-65.99-40.47c-7.4-2.62-14.88-4.54-22.4-5.72,5.24-3.38,10.76-6.25,16.44-8.77,2.68,4.51,5.14,9.12,7.18,13.87-.41,.19-.8,.42-1.22,.62h0Zm-38.95-39.29c-3.51,1.87-6.88,3.91-10.15,6.06-3.86-3.67-7.86-7.19-12.17-10.35,6-3.61,12.33-6.68,18.96-9.19,3.28,2.16,6.48,4.51,9.58,7.04,.89,.72,1.7,1.57,2.57,2.32-2.98,1.32-5.96,2.62-8.79,4.13h0Zm-16.32,10.55c-4.13,3.11-8.07,6.39-11.74,9.93-3.98-3.91-8.27-7.55-12.8-10.94,3.73-3.37,7.59-6.59,11.71-9.48,4.55,3.18,8.78,6.74,12.83,10.49h0Zm-30.83-5.5c-5.88-3.86-12.14-7.29-18.8-10.2,3.56-3,7.21-5.83,11.01-8.34,6.63,2.51,12.96,5.58,18.96,9.19-3.92,2.88-7.61,6.04-11.17,9.34h0Zm-26.75-13.26c-4.11-1.48-8.25-2.73-12.41-3.75,3.29-2.61,6.76-5.03,10.37-7.29,4.15,.75,8.25,1.65,12.24,2.8-3.51,2.55-6.9,5.32-10.2,8.24Zm-46.16,23.14c-2.78,4.54-5.29,9.23-7.47,14.08-6.88-1.38-13.98-2.1-21.22-2.29,2.33-4.57,4.82-9,7.65-13.14,7.09-.18,14.12,.27,21.04,1.34h0Zm-101.97,197.78c-.29,.25-.58,.51-.86,.77-3.61-3.74-6.95-7.77-10.07-12.02,4.52-4.29,9.32-8.29,14.48-11.81-1.84,7.46-3.07,15.16-3.54,23.06h0Zm-6.38,5.96c-3.9,3.95-7.52,8.23-10.9,12.73-3.37-3.72-6.59-7.59-9.48-11.71,3.16-4.52,6.71-8.73,10.44-12.77,3.1,4.14,6.39,8.09,9.93,11.75h0Zm-15.38,19.02c-3.87,5.88-7.29,12.14-10.21,18.8-2.99-3.55-5.82-7.21-8.32-11.01,1.9-5.02,4.01-9.94,6.54-14.61,.82-1.5,1.77-2.9,2.65-4.36,2.88,3.92,6.04,7.61,9.34,11.17h0Zm80.57,122.05c.4-.02,.79-.04,1.19-.06,6.34,5.82,13.12,10.84,20.24,15.15-6.62,1.25-13.33,1.86-20.04,1.95-.88-5.7-1.36-11.38-1.39-17.04h0Zm62.16,31.02c-.13-.05-.25-.13-.39-.18,.47,.1,.94,.2,1.41,.29,.3,.2,.61,.39,.91,.59-.65-.26-1.3-.43-1.94-.7h0Zm106.7,9.14c-2.02-1.63-3.94-3.4-5.85-5.16,1.75-.86,3.5-1.71,5.2-2.65,1.73,.19,3.45,.43,5.18,.55-1.11,2.36-2.21,4.73-3.48,7.01-.29,.09-.6,.16-.89,.25-.06,0-.11,0-.16,0h0Zm35.29-8.38c-.13,.05-.26,.09-.39,.13,.41-.27,.83-.53,1.24-.81,.36-.07,.71-.14,1.08-.22-.66,.29-1.27,.64-1.93,.9Zm61.27-30.42c.41,.02,.81,.05,1.21,.07-.09,5.16-.58,10.35-1.36,15.54-6.22-.17-12.44-.73-18.57-1.89,6.54-3.96,12.82-8.5,18.72-13.72h0Zm39.67-69.44c-.04,.09-.09,.16-.12,.25,.1-.44,.19-.88,.28-1.32,.18-.26,.35-.54,.52-.8-.24,.62-.42,1.26-.68,1.88h0Zm21.87-64.87c.29-.25,.59-.51,.87-.77,3.59,3.72,6.91,7.73,10.02,11.95-4.51,4.27-9.29,8.25-14.42,11.77,1.82-7.44,3.05-15.09,3.53-22.95h0Zm6.38-5.97c3.92-3.98,7.55-8.27,10.95-12.8,3.35,3.71,6.56,7.55,9.43,11.67-3.17,4.54-6.73,8.77-10.49,12.82-3.09-4.12-6.36-8.04-9.88-11.69h0Zm19.38-42.38c-2.66,6.32-5.89,12.19-9.46,17.78-5.43-5.16-11.32-9.79-17.61-13.93,4.31-6.25,8-12.87,11.1-19.75,5.38,3.79,10.56,8,15.38,12.82,.43,.44,.8,.91,1.22,1.35-.23,.58-.39,1.16-.63,1.73h0Zm-31.96-2.4c-1.21-8.24-3.27-16.45-6.22-24.56,.18-.38,.39-.75,.57-1.12,5.24,2.24,10.29,4.98,15.23,8-2.7,6.14-5.87,12.07-9.58,17.68h0Zm-9.66-35.34c-.42-.15-.84-.26-1.26-.41-3.37-7.09-7.32-13.73-11.8-19.89,6.08,1.31,12,3.17,17.78,5.41-1.29,5.08-2.8,10.08-4.73,14.88h0Zm-21.88-33.67c-3.97-6.56-8.52-12.85-13.76-18.76,.02-.37,.05-.73,.07-1.1,5.18,.09,10.38,.58,15.57,1.37-.18,6.2-.74,12.39-1.88,18.5h0Zm-13.47-27.43c-.04-5.59-.51-11.19-1.32-16.81,5.01,.25,10,.7,14.95,1.58,.97,5.46,1.45,10.98,1.66,16.5-5.11-.73-10.2-1.18-15.29-1.27h0Zm-2.59-24.42c-1.43-6.89-3.43-13.75-6.09-20.51,4.62,.4,9.2,.98,13.64,1.89,2.92,6.46,5.22,13.11,6.91,19.91-4.8-.73-9.63-1.11-14.47-1.29h0Zm-13.68-19.23c2.58,6.34,4.45,12.77,5.88,19.24-7.48,.19-14.93,1.09-22.3,2.62-1.38-7.46-3.45-14.76-6.12-21.83,6.5-1.12,13.15-1.82,19.97-1.82,.61,0,1.18,.08,1.78,.09,.25,.57,.55,1.11,.79,1.7h0Zm-33.1-5.44c-5.48,1.39-10.87,3-16.04,5.07-2-4.67-4.41-9.2-6.99-13.66,5.18-1.9,10.47-3.48,15.88-4.65,2.68,4.25,5.03,8.69,7.15,13.23h0Zm-46.46-37.74c-3.64-3.29-7.39-6.39-11.28-9.23,4.43-1.28,8.96-2.27,13.58-3.05,4.03,2.53,7.91,5.23,11.54,8.17-4.64,1.09-9.26,2.46-13.84,4.11Zm-28.36-11.17c-6.11,2.65-11.93,5.82-17.49,9.38-5.56-3.55-11.38-6.73-17.49-9.38,5.65-3.09,11.5-5.63,17.48-7.73,5.99,2.1,11.84,4.64,17.5,7.73Zm-148.95,53c-2.64,6.74-4.74,13.57-6.16,20.44-5.33,.16-10.64,.63-15.93,1.44,1.69-6.79,4-13.45,6.92-19.92,4.95-1.01,10.03-1.59,15.17-1.96h0Zm-7.39,28.09c-.73,5.14-1.2,10.27-1.29,15.39-5.57,.04-11.18,.51-16.79,1.31,.09-1.86,.09-3.71,.27-5.57,.3-3.16,.8-6.3,1.36-9.43,5.45-.96,10.94-1.47,16.45-1.69h0Zm-51.41,118.76c-6.37,4.07-12.39,8.64-17.9,13.77-3.83-5.97-7.24-12.32-10.01-19.13-.05-.14-.09-.29-.15-.42,.1-.1,.19-.22,.29-.32,5.18-5.18,10.76-9.72,16.59-13.72,3.13,6.92,6.86,13.55,11.18,19.82h0Zm-33.6,.36c1.31,2.99,2.61,5.97,4.12,8.8,1.86,3.5,3.9,6.87,6.05,10.13-3.65,3.84-7.15,7.83-10.3,12.11-.88-1.46-1.84-2.86-2.65-4.36-2.53-4.67-4.64-9.58-6.54-14.6,2.77-4.19,5.94-8.19,9.31-12.09h0Zm-4.85,37.88c-1.59,2.49-3.19,4.96-4.6,7.57-1.74,3.21-3.31,6.54-4.78,9.91-3.09-5.65-5.63-11.51-7.73-17.49,2.1-5.98,4.64-11.84,7.73-17.48,1.47,3.37,3.03,6.7,4.78,9.91,1.41,2.61,3.01,5.09,4.6,7.57h0Zm-7.43,34.56c2.54,3.5,5.31,6.88,8.22,10.18-1.49,4.14-2.75,8.31-3.78,12.5-2.59-3.28-5-6.73-7.26-10.32,.75-4.19,1.65-8.33,2.82-12.36h0Zm9.09,39.22c4.77,4.65,9.91,8.85,15.29,12.66-1.19,6.49-1.93,13.07-2.08,19.73-5-4.06-9.56-8.52-13.77-13.28-.32-6.33-.17-12.71,.55-19.11h0Zm13.45,42.09c.22,4.01,.65,8.02,1.27,12.04-1.94-1.69-3.85-3.44-5.7-5.29-2.16-2.16-4.19-4.42-6.14-6.71-.89-3.55-1.63-7.13-2.19-10.76,3.98,3.83,8.23,7.41,12.76,10.71h0Zm28.66,60.65c1.8,1.02,3.6,2.04,5.45,2.98,.86,1.7,1.9,3.29,2.83,4.95-1.9-1.3-3.66-2.75-5.48-4.16-.95-1.25-1.9-2.48-2.8-3.77h0Zm4.23-20.54c6.2,2.45,12.55,4.31,19,5.74,1.43,6.44,3.29,12.8,5.74,19-6.18-1.8-12.12-4.15-17.84-6.89-2.75-5.72-5.1-11.66-6.9-17.84h0Zm23.77-17.07c5.1,.72,10.2,1.18,15.29,1.27,.04,5.55,.5,11.12,1.29,16.7-5-.25-10-.7-14.94-1.58-.96-5.42-1.43-10.9-1.64-16.39h0Zm17.88,25.67c1.42,6.86,3.41,13.68,6.05,20.41-4.61-.39-9.17-.97-13.61-1.89-2.92-6.46-5.21-13.11-6.91-19.91,4.8,.74,9.64,1.18,14.48,1.38h0Zm37.96-1.65c6.68,4.97,13.94,9.32,21.76,12.97,.13,.37,.24,.74,.37,1.11-5.29,2.12-10.8,3.76-16.43,5.11-2.42-6.22-4.36-12.63-5.7-19.2h0Zm24.86,21.16c2.02,4.71,4.44,9.27,7.04,13.76-5.2,1.91-10.51,3.5-15.94,4.67-2.71-4.28-5.07-8.75-7.2-13.34,5.5-1.39,10.91-3.02,16.1-5.09h0Zm6.93-3.07c.38-.18,.73-.38,1.09-.55,7.44,2.65,14.96,4.57,22.53,5.77-5.22,3.37-10.73,6.23-16.39,8.74-2.7-4.55-5.19-9.18-7.23-13.96h0Zm50.39,32.67c3.84,3.65,7.83,7.14,12.11,10.29-6,3.61-12.33,6.68-18.96,9.19-4.2-2.76-8.19-5.94-12.08-9.3,6.68-2.93,13.04-6.3,18.93-10.19h0Zm6.17-4.5c4.11-3.09,8.03-6.37,11.68-9.89,3.96,3.9,8.23,7.52,12.74,10.9-3.71,3.36-7.55,6.56-11.67,9.43-4.52-3.16-8.73-6.7-12.76-10.44h0Zm30.71,5.5c5.88,3.86,12.14,7.29,18.8,10.2-3.54,2.98-7.17,5.79-10.95,8.28-6.62-2.51-12.95-5.58-18.95-9.19,3.9-2.87,7.56-6,11.11-9.29h0Zm61.44-38.85c7.12-3.38,13.79-7.34,19.97-11.83-1.31,6.07-3.17,11.98-5.4,17.76-5.11-1.3-10.14-2.81-14.96-4.75,.14-.39,.24-.8,.39-1.18h0Zm58.31-11.34c5.31-.13,10.61-.48,15.87-1.29-1.69,6.79-4,13.44-6.91,19.9-4.93,1.02-10,1.59-15.15,1.96,2.66-6.79,4.77-13.66,6.19-20.57h0Zm1.18-7.55c.71-5.08,1.17-10.17,1.26-15.24,5.57-.04,11.16-.5,16.76-1.31-.25,4.99-.7,9.97-1.58,14.9-5.43,.96-10.93,1.43-16.44,1.64h0Zm1.13-22.82c-.02-.4-.04-.8-.06-1.2,5.84-6.35,10.89-13.17,15.21-20.31,1.25,6.64,1.87,13.37,1.96,20.11-5.71,.88-11.42,1.37-17.11,1.4h0Zm22.9-32.98c4.98-6.69,9.33-13.96,12.98-21.79,.38-.13,.77-.24,1.15-.38,2.12,5.3,3.76,10.82,5.11,16.46-6.24,2.42-12.68,4.37-19.25,5.71h0Zm17.56-32.96c2.64-7.41,4.54-14.91,5.74-22.44,3.37,5.21,6.23,10.71,8.73,16.37-4.52,2.68-9.13,5.15-13.9,7.19-.18-.39-.39-.75-.57-1.12h0Zm9.75-29.93c6.37-4.07,12.39-8.64,17.91-13.76,3.84,6,7.27,12.38,10.06,19.21,.04,.11,.07,.22,.12,.33-.09,.09-.16,.19-.25,.28-5.2,5.2-10.78,9.74-16.64,13.75-3.12-6.91-6.85-13.54-11.2-19.81h0Zm33.62-.34c-2.93-6.68-6.29-13.04-10.18-18.93,3.67-3.86,7.18-7.86,10.35-12.16,3.6,6,6.68,12.33,9.19,18.96-2.79,4.21-5.98,8.23-9.36,12.14h0Zm4.88-37.94c3.55-5.55,6.73-11.38,9.38-17.48,3.09,5.65,5.63,11.5,7.73,17.49-2.1,5.98-4.64,11.84-7.73,17.48-2.66-6.11-5.83-11.93-9.38-17.49h0Zm12.82-26.55c1.16-3.37,2.18-6.82,3.06-10.31,1.38,2.75,2.75,5.51,3.94,8.41,.98,2.4,1.73,4.83,2.54,7.25-.48,3.14-1.05,6.27-1.78,9.37-2.23-5.04-4.82-9.95-7.76-14.73h0Zm-5.38-8c-2.54-3.49-5.3-6.86-8.2-10.15,1.48-4.12,2.73-8.26,3.76-12.44,2.59,3.27,5,6.71,7.25,10.29-.75,4.17-1.65,8.29-2.81,12.29Zm-14.03-16.3c-5.2-5.05-10.7-9.56-16.48-13.52,1.71-4.53,3.16-9.15,4.34-13.85,5.6,4.2,10.84,8.89,15.67,14.09-.88,4.45-2.11,8.88-3.54,13.28h0Zm-23.05-17.62c-4.87-2.91-9.84-5.57-14.97-7.78,1.89-4.72,3.4-9.63,4.72-14.61,5.02,2.33,9.89,4.95,14.55,7.96-1.12,4.9-2.59,9.7-4.31,14.42h0Zm-6.2-59.57c-.25-4.9-.7-9.75-1.46-14.5,4.05,2.23,7.98,4.75,11.8,7.47,1.06,4.64,1.89,9.29,2.38,13.94-4.06-2.52-8.3-4.82-12.73-6.91h0Zm-7.79-3.39c-6.79-2.66-13.66-4.77-20.59-6.19-.13-5.33-.48-10.65-1.28-15.93,6.79,1.69,13.44,4,19.9,6.91,1.02,4.96,1.61,10.06,1.97,15.22h0Zm-23.36-30.3c-1.43-6.44-3.29-12.8-5.74-19,6.18,1.81,12.11,4.15,17.83,6.89,2.74,5.72,5.08,11.65,6.89,17.83-6.19-2.44-12.55-4.31-18.99-5.73h0Zm-19.19-29.69c-4.27-.67-8.62-1.11-13.01-1.38-1.87-3.95-3.9-7.76-6.12-11.43,4.16,.48,8.31,1.22,12.46,2.16,2.4,3.46,4.67,7,6.67,10.64h0Zm-34.12-21.21c-6.66,.07-13.25,.75-19.75,1.86-3.75-5.43-7.88-10.61-12.49-15.43,6.41-.66,12.79-.73,19.11-.35,4.7,4.26,9.12,8.87,13.13,13.91h0Zm-39.27-20.26c-3.02-2.71-6.2-5.28-9.53-7.71,2.59-.18,5.21-.29,7.85-.29,3,0,5.98,.16,8.93,.39,3.21,1.9,6.32,3.96,9.35,6.17-5.52,.11-11.06,.59-16.6,1.45h0Zm-19.38-14.2c-3.24-1.93-6.6-3.71-10.06-5.37,3.86,.01,7.73,.24,11.58,.63,3.37,1.05,6.68,2.29,9.95,3.63-3.88,.2-7.7,.56-11.46,1.11h0Zm-43.7-8.4c-2.03,.55-4.07,.99-6.07,1.64-1.73-.57-3.5-.93-5.26-1.43,2.22-.41,4.44-.63,6.67-.91,1.55,.22,3.1,.42,4.66,.69h0Zm-45.21,2.88c.5,0,1,.04,1.5,.05-3.67,1.73-7.22,3.62-10.64,5.66-3.91-.62-7.89-1.02-11.91-1.26,3.54-1.48,7.14-2.8,10.81-3.93,3.41-.3,6.82-.52,10.24-.52h0Zm-18.89,12.14c-2.97,2.17-5.84,4.44-8.59,6.84-5.53-.91-11.06-1.45-16.57-1.62,2.68-1.91,5.41-3.7,8.23-5.37,2.48-.17,4.97-.27,7.5-.27,3.18,0,6.32,.16,9.43,.42h0Zm-95.41,42.96c2.33-.95,4.68-1.67,7.03-2.46-1.41,2.3-2.76,4.62-4.01,6.98-.59,1.11-1.03,2.29-1.58,3.41-5.45,1.3-10.76,2.95-15.91,4.93,1.9-3.09,3.97-6.06,6.12-8.95,2.73-1.37,5.47-2.73,8.35-3.91h0Zm-2.54,16.78c-2.45,6.2-4.32,12.56-5.74,19.01-6.45,1.43-12.81,3.29-19,5.74,1.81-6.19,4.15-12.13,6.9-17.84,5.72-2.75,11.66-5.09,17.84-6.9Zm-7.23,27.18c-.73,4.82-1.11,9.66-1.28,14.52-6.89,1.43-13.75,3.43-20.52,6.09,.39-4.64,.98-9.21,1.89-13.68,6.46-2.92,13.11-5.23,19.91-6.92h0Zm-28.21,11.01c-.67,4.28-1.11,8.64-1.38,13.04-3.97,1.87-7.79,3.91-11.47,6.14,.48-4.16,1.22-8.32,2.16-12.46,3.48-2.42,7.03-4.7,10.69-6.71h0Zm-21.83,65.04c1.33-1.06,2.76-1.98,4.13-2.99,1.25,5.18,2.79,10.28,4.68,15.25-5.84,3.89-11.36,8.41-16.61,13.4-1.59-4.89-2.96-9.8-3.88-14.73,3.69-3.89,7.54-7.61,11.68-10.92h0Zm-13.72,31.71c-3.27,3.62-6.36,7.36-9.18,11.23-1.29-4.43-2.28-8.98-3.05-13.61,2.52-4.01,5.2-7.85,8.12-11.47,1.1,4.65,2.46,9.27,4.11,13.85Zm-15.85,15.69c.38,1.21,.88,2.35,1.29,3.54-2.94,4.77-5.52,9.68-7.75,14.72-.85-3.59-1.48-7.21-1.98-10.84,.95-2.84,1.89-5.67,3.07-8.47,.98-2.33,2.15-4.54,3.26-6.77,.64,2.63,1.31,5.25,2.12,7.82h0Zm32.84,169.57c.91,3.64,2.02,7.27,3.29,10.88-2.76-2.79-5.38-5.74-7.85-8.8-1.61-3.1-3.08-6.27-4.41-9.49,2.9,2.62,5.89,5.11,8.97,7.41h0Zm47.41,53.11c-1.87-2.57-3.66-5.23-5.34-7.95,5.15,1.98,10.46,3.63,15.91,4.93,.55,1.13,1,2.3,1.58,3.41,1.09,2.07,2.3,4.09,3.5,6.11-2.9-.96-5.8-1.94-8.67-3.14-2.41-1.02-4.68-2.21-6.99-3.37h0Zm20.04-1.16c4.26,.66,8.59,1.1,12.96,1.38,1.88,4,3.94,7.84,6.18,11.54-4.13-.48-8.25-1.21-12.37-2.15-2.44-3.51-4.74-7.09-6.77-10.78h0Zm21.43,1.61c7.24-.11,14.33-.8,21.22-2.1,2,4.44,4.26,8.76,6.76,12.95-6.93,1-13.96,1.38-21.05,1.11-2.54-3.79-4.81-7.82-6.93-11.97h0Zm40.56,16.15c5.21-1.25,10.34-2.8,15.33-4.7,3.89,5.83,8.41,11.35,13.39,16.6-4.91,1.61-9.85,2.98-14.82,3.91-5.13-4.88-9.77-10.17-13.91-15.81h0Zm34.79,17.81c3.61,3.27,7.34,6.35,11.21,9.16-4.47,1.29-9.06,2.29-13.73,3.07-3.99-2.5-7.82-5.18-11.42-8.1,4.67-1.09,9.31-2.47,13.94-4.14Zm28.27,11.11c6.11-2.65,11.93-5.83,17.49-9.38,5.55,3.55,11.37,6.72,17.48,9.37-5.65,3.09-11.51,5.63-17.5,7.73-5.97-2.11-11.82-4.64-17.47-7.73h0Zm52.04-1.95c3.48-2.53,6.84-5.29,10.13-8.17,4.15,1.49,8.32,2.76,12.52,3.79-3.25,2.57-6.68,4.97-10.24,7.22-4.21-.76-8.37-1.66-12.41-2.84h0Zm33.91-37.05c2.91-4.88,5.59-9.86,7.8-15,4.75,1.9,9.68,3.41,14.68,4.74-2.33,5.04-4.96,9.93-7.98,14.6-4.93-1.12-9.75-2.61-14.5-4.34h0Zm59.67-6.23c4.88-.25,9.7-.7,14.43-1.45-2.25,4.07-4.8,8.04-7.55,11.89-4.6,1.05-9.2,1.87-13.82,2.36,2.54-4.09,4.85-8.36,6.94-12.8h0Zm27.88-12.15c2.45-6.2,4.3-12.55,5.73-19,6.44-1.43,12.8-3.29,18.99-5.73-1.81,6.18-4.15,12.11-6.89,17.83-5.72,2.75-11.65,5.09-17.82,6.9h0Zm7.22-27.16c.73-4.79,1.11-9.6,1.29-14.42,6.88-1.43,13.73-3.43,20.5-6.08-.39,4.6-.98,9.15-1.89,13.59-6.45,2.91-13.1,5.21-19.89,6.91h0Zm28.19-11.01c.67-4.25,1.11-8.57,1.39-12.94,3.97-1.87,7.8-3.92,11.48-6.15-.48,4.12-1.21,8.25-2.14,12.36-3.49,2.43-7.06,4.71-10.73,6.73h0Zm-2.23-50.18c-1.39-5.51-3.01-10.92-5.09-16.12,4.68-2.01,9.23-4.42,13.7-7.01,1.91,5.2,3.5,10.52,4.67,15.95-4.26,2.7-8.71,5.05-13.27,7.18h0Zm15.23-27.13c5.84-3.89,11.36-8.41,16.61-13.38,1.6,4.91,2.98,9.85,3.91,14.82-4.88,5.14-10.17,9.78-15.82,13.91-1.26-5.22-2.81-10.35-4.71-15.35h0Zm22.52-19.42c3.29-3.64,6.39-7.39,9.21-11.27,1.29,4.46,2.29,9.04,3.07,13.69-2.52,4.02-5.21,7.88-8.15,11.5-1.09-4.66-2.46-9.3-4.13-13.92h0Zm14.6-19.26c2.94-4.77,5.52-9.69,7.76-14.73,.86,3.6,1.48,7.24,1.99,10.89-.95,2.86-1.9,5.71-3.09,8.52-1,2.38-2.19,4.62-3.32,6.91-.96-3.93-2.03-7.82-3.34-11.6h0Zm-14.47-100.24c-4.77-4.65-9.91-8.84-15.29-12.65,1.18-6.49,1.93-13.08,2.08-19.73,5,4.06,9.56,8.52,13.76,13.27,.32,6.33,.18,12.71-.55,19.1h0Zm-.7-31.38c-3.98-3.82-8.23-7.4-12.75-10.71-.23-4.06-.65-8.11-1.29-12.18,1.94,1.7,3.86,3.45,5.71,5.31,2.15,2.15,4.16,4.38,6.09,6.65,.92,3.6,1.66,7.24,2.24,10.92h0Zm-7.5-27.1c-2.89-2.61-5.85-5.07-8.92-7.35-.92-3.64-2.04-7.27-3.3-10.89,2.74,2.77,5.33,5.68,7.79,8.7,1.63,3.11,3.1,6.3,4.43,9.54h0Zm-33.87-44.18c-1.84-1.05-3.61-2.2-5.51-3.16-.83-1.64-1.84-3.17-2.73-4.77,1.88,1.29,3.61,2.72,5.4,4.11,.96,1.26,1.93,2.51,2.84,3.82h0ZM159.95,38.58c-3.83,3.98-7.41,8.23-10.72,12.76-4.05,.22-8.1,.65-12.16,1.28,1.71-1.96,3.48-3.89,5.35-5.77,2.13-2.13,4.34-4.12,6.59-6.04,3.62-.91,7.26-1.66,10.94-2.23h0Zm-27.17,7.52c-2.62,2.89-5.12,5.86-7.42,8.93-3.66,.93-7.31,2.05-10.94,3.34,2.58-2.58,5.25-5.08,8.07-7.41,3.34-1.78,6.78-3.41,10.29-4.86h0Zm-44.11,33.84c-1.04,1.82-2.16,3.57-3.11,5.45-1.65,.83-3.19,1.85-4.79,2.75,1.28-1.86,2.69-3.57,4.05-5.33,1.27-.96,2.53-1.95,3.85-2.86h0Zm-28.98,33.3c-1.32,3.73-2.46,7.48-3.41,11.25-3.2,2.33-6.29,4.86-9.3,7.53,1.43-3.49,3.02-6.91,4.78-10.25,2.5-2.98,5.16-5.81,7.94-8.52h0Zm-12.67,29.02c2.23-2.23,4.55-4.32,6.91-6.34-.57,3.63-.99,7.26-1.23,10.89-4.55,3.26-8.84,6.79-12.85,10.57,.54-3.22,1.21-6.41,2.01-9.57,1.64-1.89,3.35-3.75,5.16-5.55h0Zm5.34,14.25c.04,3.68,.2,7.36,.56,10.99,.29,2.95,.8,5.86,1.31,8.77-5.43,3.75-10.61,7.88-15.43,12.48-.66-6.41-.73-12.79-.34-19.12,4.26-4.7,8.87-9.11,13.9-13.11h0ZM9.53,258.7c.56,2.07,1.01,4.15,1.67,6.19-.59,1.79-.96,3.61-1.47,5.42-.42-2.25-.64-4.5-.92-6.76,.23-1.62,.43-3.23,.72-4.85h0Zm3.09,44.27c1.62,3.4,3.37,6.68,5.25,9.87,.06,.1,.12,.2,.18,.3-.61,3.95-.96,7.96-1.19,12.03-1.43-3.4-2.69-6.87-3.79-10.39-.36-3.92-.49-7.86-.45-11.8h0Zm129.81,179.97c-2.21-2.21-4.29-4.5-6.28-6.84,3.6,.55,7.19,.97,10.79,1.21,3.25,4.55,6.78,8.84,10.56,12.86-3.18-.54-6.32-1.18-9.43-1.97-1.92-1.67-3.81-3.42-5.64-5.25h0Zm36.88,16.4c5.52-.11,11.06-.59,16.59-1.44,2.99,2.68,6.12,5.21,9.4,7.62-2.55,.17-5.11,.29-7.71,.29-3.09,0-6.13-.16-9.15-.41-3.13-1.88-6.18-3.89-9.14-6.05h0Zm24.25,13.79c3.92-.19,7.79-.55,11.6-1.1,3.21,1.92,6.54,3.7,9.97,5.34-3.95-.02-7.9-.27-11.84-.68-3.3-1.05-6.54-2.23-9.73-3.56h0Zm55.63,7.42c.83-.23,1.68-.38,2.51-.62,1.13-.34,2.23-.81,3.36-1.17,1.83,.61,3.71,.99,5.56,1.5-2.31,.43-4.62,.65-6.92,.94-1.51-.21-3.01-.4-4.51-.66h0Zm79.62-28.52c4.65-4.77,8.84-9.9,12.65-15.29,6.48,1.19,13.07,1.93,19.72,2.08-4.06,5-8.52,9.56-13.27,13.76-6.33,.32-12.7,.18-19.1-.55h0Zm31.36-.7c3.83-3.98,7.4-8.23,10.71-12.75,4.02-.22,8.03-.65,12.06-1.27-1.68,1.92-3.41,3.81-5.24,5.64-2.18,2.18-4.46,4.23-6.77,6.18-3.55,.9-7.13,1.63-10.77,2.2h0Zm26.94-7.42c2.63-2.91,5.1-5.89,7.41-8.96,3.63-.92,7.24-2.02,10.84-3.28-2.8,2.77-5.75,5.38-8.82,7.86-3.08,1.59-6.23,3.05-9.43,4.38h0Zm44.19-33.81c1.09-1.9,2.27-3.73,3.26-5.69,1.7-.86,3.29-1.9,4.94-2.84-1.32,1.94-2.8,3.73-4.24,5.57-1.31,.99-2.6,2-3.96,2.95h0Zm29.2-33.61c1.31-3.71,2.44-7.44,3.39-11.2,3.21-2.33,6.31-4.87,9.33-7.57-1.41,3.44-2.97,6.8-4.68,10.09-2.54,3.03-5.22,5.91-8.04,8.67h0Zm12.61-28.95c-2.23,2.23-4.54,4.32-6.91,6.33,.56-3.6,.98-7.19,1.21-10.79,4.55-3.25,8.84-6.79,12.85-10.57-.53,3.19-1.18,6.34-1.97,9.46-1.66,1.89-3.38,3.75-5.19,5.56h0Zm-5.35-14.16c-.07-6.66-.75-13.26-1.87-19.76,5.43-3.75,10.61-7.88,15.43-12.48,.66,6.41,.73,12.79,.35,19.12-4.26,4.7-8.87,9.11-13.91,13.12h0Zm24.04-206.55c.52,1.95,.96,3.93,1.4,5.92-.98-1.26-2.05-2.45-3.08-3.66-.14-1.95-.29-3.89-.52-5.82,.73,1.19,1.5,2.36,2.2,3.56h0ZM363.12,28.15c1.76,1.02,3.5,2.11,5.21,3.22-1.61-.2-3.24-.29-4.86-.43-1.49-1.29-2.98-2.56-4.52-3.78,1.39,.33,2.79,.62,4.17,.98h0Zm-196.11,0c1.95-.52,3.94-.97,5.92-1.4-1.28,1.01-2.51,2.09-3.75,3.14-1.95,.14-3.89,.29-5.84,.52,1.22-.75,2.43-1.54,3.66-2.26h0ZM28.3,166.88c1-1.74,2.09-3.45,3.18-5.15-.19,1.59-.29,3.2-.42,4.8-1.27,1.46-2.53,2.93-3.73,4.45,.32-1.37,.61-2.75,.96-4.1h0Zm-1.35,190.32c.98,1.25,2.03,2.43,3.05,3.63,.14,1.9,.27,3.78,.5,5.67-.73-1.18-1.49-2.35-2.19-3.54-.5-1.9-.93-3.83-1.36-5.76Zm140.07,144.46c-1.69-.98-3.36-2.04-5.02-3.09,1.54,.18,3.08,.26,4.62,.39,1.43,1.23,2.84,2.46,4.32,3.63-1.31-.31-2.63-.59-3.93-.93h0Zm196.11-.02c-1.9,.51-3.82,.93-5.75,1.36,1.21-.96,2.36-1.99,3.54-2.99,1.89-.13,3.77-.27,5.64-.49-1.14,.7-2.27,1.45-3.43,2.12Zm138.67-138.66c-.99,1.72-2.06,3.4-3.14,5.08,.19-1.55,.27-3.13,.4-4.7,1.26-1.45,2.5-2.89,3.69-4.39-.32,1.34-.6,2.69-.95,4.02Z"/></svg>